# Blender v3.0.1 OBJ File: ''
# www.blender.org
mtllib arm_1.mtl
o Solido1_Solido1.005
v 0.000000 0.465405 -0.057905
v 0.000000 0.467400 -0.058000
v 0.007673 0.464459 -0.057292
v 0.010657 0.467400 -0.057012
v 0.016185 0.464459 -0.055491
v 0.020952 0.467400 -0.054083
v 0.025330 0.464459 -0.051958
v 0.030533 0.467400 -0.049312
v 0.030017 0.464459 -0.049399
v 0.034682 0.464459 -0.046243
v 0.030127 0.461470 -0.048657
v 0.038555 0.461470 -0.042293
v 0.039230 0.464459 -0.042452
v 0.043550 0.464459 -0.038008
v 0.039074 0.467400 -0.042862
v 0.046285 0.467400 -0.034953
v 0.047518 0.464459 -0.032913
v 0.051919 0.467400 -0.025853
v 0.051003 0.464459 -0.027202
v 0.053877 0.464459 -0.020940
v 0.051230 0.461470 -0.025509
v 0.055045 0.461470 -0.015662
v 0.056025 0.464459 -0.014228
v 0.057353 0.464459 -0.007197
v 0.055785 0.467400 -0.015872
v 0.057752 0.467400 -0.005352
v 0.057803 0.464459 0.000000
v 0.057752 0.467400 0.005352
v 0.057353 0.464459 0.007197
v 0.055785 0.467400 0.015872
v 0.056025 0.464459 0.014228
v 0.053877 0.464459 0.020940
v 0.055045 0.461470 0.015662
v 0.051230 0.461470 0.025509
v 0.051003 0.464459 0.027202
v 0.047518 0.464459 0.032913
v 0.051919 0.467400 0.025853
v 0.046285 0.467400 0.034953
v 0.043550 0.464459 0.038008
v 0.039074 0.467400 0.042862
v 0.039230 0.464459 0.042452
v 0.034682 0.464459 0.046243
v 0.038555 0.461470 0.042293
v 0.030127 0.461470 0.048657
v 0.030017 0.464459 0.049399
v 0.025330 0.464459 0.051958
v 0.030533 0.467400 0.049312
v 0.020952 0.467400 0.054083
v 0.016185 0.464459 0.055491
v 0.010657 0.467400 0.057012
v 0.007673 0.464459 0.057292
v 0.000000 0.467400 0.058000
v 0.000000 0.465405 0.057905
v 0.000000 0.463423 0.057648
v 0.000000 0.461470 0.057229
v 0.010516 0.461470 0.056255
v 0.020674 0.461470 0.053365
v 0.045670 0.461470 0.034488
v 0.056985 0.461470 0.005280
v 0.056985 0.461470 -0.005280
v 0.045670 0.461470 -0.034488
v 0.020674 0.461470 -0.053365
v 0.010516 0.461470 -0.056255
v 0.000000 0.461470 -0.057229
v 0.000000 0.463423 -0.057648
v 0.012064 0.015366 -0.068417
v 0.011762 0.014150 -0.070486
v 0.000000 0.015366 -0.069472
v 0.000000 0.014150 -0.071460
v 0.000000 0.015366 -0.069472
v 0.000000 0.014150 -0.071460
v -0.011762 0.014150 -0.070486
v 0.000000 0.010879 -0.074069
v -0.012191 0.010879 -0.073059
v 0.000000 0.006800 -0.075000
v -0.012345 0.006800 -0.073977
v 0.023203 0.014150 -0.067588
v 0.023761 0.015366 -0.065282
v 0.034011 0.014150 -0.062848
v 0.034736 0.015366 -0.060165
v 0.043892 0.014150 -0.056392
v 0.044656 0.015366 -0.053219
v 0.052575 0.014150 -0.048399
v 0.053219 0.015366 -0.044656
v 0.059824 0.014150 -0.039085
v 0.060165 0.015366 -0.034736
v 0.065442 0.014150 -0.028705
v 0.065282 0.015366 -0.023761
v 0.069274 0.014150 -0.017542
v 0.068417 0.015366 -0.012064
v 0.071216 0.014150 -0.005901
v 0.069472 0.015366 0.000000
v 0.071216 0.014150 0.005901
v 0.068417 0.015366 0.012064
v 0.069274 0.014150 0.017542
v 0.065282 0.015366 0.023761
v 0.065442 0.014150 0.028705
v 0.060165 0.015366 0.034736
v 0.059824 0.014150 0.039085
v 0.053219 0.015366 0.044656
v 0.052575 0.014150 0.048399
v 0.044656 0.015366 0.053219
v 0.043892 0.014150 0.056392
v 0.034736 0.015366 0.060165
v 0.034011 0.014150 0.062848
v 0.023761 0.015366 0.065282
v 0.023203 0.014150 0.067588
v 0.012064 0.015366 0.068417
v 0.011762 0.014150 0.070486
v 0.000000 0.015366 0.069472
v 0.000000 0.014150 0.071460
v -0.011762 0.014150 0.070486
v -0.012191 0.010879 0.073059
v -0.024050 0.010879 0.070056
v -0.024352 0.006800 0.070936
v -0.035696 0.006800 0.065961
v -0.035253 0.010879 0.065142
v -0.046066 0.006800 0.059186
v -0.045494 0.010879 0.058451
v -0.055179 0.006800 0.050796
v -0.054494 0.010879 0.050166
v -0.062787 0.006800 0.041021
v -0.062008 0.010879 0.040512
v -0.068683 0.006800 0.030127
v -0.067830 0.010879 0.029753
v -0.072705 0.006800 0.018411
v -0.071803 0.010879 0.018183
v -0.074744 0.006800 0.006193
v -0.073816 0.010879 0.006117
v -0.074744 0.006800 -0.006193
v -0.073816 0.010879 -0.006117
v -0.072705 0.006800 -0.018411
v -0.071803 0.010879 -0.018183
v -0.068683 0.006800 -0.030127
v -0.067830 0.010879 -0.029753
v -0.062787 0.006800 -0.041021
v -0.062008 0.010879 -0.040512
v -0.055179 0.006800 -0.050796
v -0.054494 0.010879 -0.050166
v -0.046066 0.006800 -0.059186
v -0.045494 0.010879 -0.058451
v -0.035696 0.006800 -0.065961
v -0.035253 0.010879 -0.065142
v -0.024352 0.006800 -0.070936
v -0.024050 0.010879 -0.070056
v -0.012064 0.015366 0.068417
v -0.023203 0.014150 0.067588
v -0.023761 0.015366 0.065282
v -0.034011 0.014150 0.062848
v -0.034736 0.015366 0.060165
v -0.043892 0.014150 0.056392
v -0.044656 0.015366 0.053219
v -0.052575 0.014150 0.048399
v -0.053219 0.015366 0.044656
v -0.059824 0.014150 0.039085
v -0.060165 0.015366 0.034736
v -0.065442 0.014150 0.028705
v -0.065282 0.015366 0.023761
v -0.069274 0.014150 0.017542
v -0.068417 0.015366 0.012064
v -0.071216 0.014150 0.005901
v -0.069472 0.015366 0.000000
v -0.071216 0.014150 -0.005901
v -0.068417 0.015366 -0.012064
v -0.069274 0.014150 -0.017542
v -0.065282 0.015366 -0.023761
v -0.065442 0.014150 -0.028705
v -0.060165 0.015366 -0.034736
v -0.059824 0.014150 -0.039085
v -0.053219 0.015366 -0.044656
v -0.052575 0.014150 -0.048399
v -0.044656 0.015366 -0.053219
v -0.043892 0.014150 -0.056392
v -0.034736 0.015366 -0.060165
v -0.034011 0.014150 -0.062848
v -0.023761 0.015366 -0.065282
v -0.023203 0.014150 -0.067588
v -0.012064 0.015366 -0.068417
v -0.012345 0.006800 0.073977
v 0.000000 0.010879 0.074069
v 0.000000 0.006800 0.075000
v 0.012191 0.010879 0.073059
v 0.012345 0.006800 0.073977
v 0.024050 0.010879 0.070056
v 0.024352 0.006800 0.070936
v 0.035253 0.010879 0.065142
v 0.035696 0.006800 0.065961
v 0.045494 0.010879 0.058451
v 0.046066 0.006800 0.059186
v 0.054494 0.010879 0.050166
v 0.055179 0.006800 0.050796
v 0.062008 0.010879 0.040512
v 0.062787 0.006800 0.041021
v 0.067830 0.010879 0.029753
v 0.068683 0.006800 0.030127
v 0.071803 0.010879 0.018183
v 0.072705 0.006800 0.018411
v 0.073816 0.010879 0.006117
v 0.074744 0.006800 0.006193
v 0.073816 0.010879 -0.006117
v 0.074744 0.006800 -0.006193
v 0.071803 0.010879 -0.018183
v 0.072705 0.006800 -0.018411
v 0.067830 0.010879 -0.029753
v 0.068683 0.006800 -0.030127
v 0.062008 0.010879 -0.040512
v 0.062787 0.006800 -0.041021
v 0.054494 0.010879 -0.050166
v 0.055179 0.006800 -0.050796
v 0.045494 0.010879 -0.058451
v 0.046066 0.006800 -0.059186
v 0.035253 0.010879 -0.065142
v 0.035696 0.006800 -0.065961
v 0.024050 0.010879 -0.070056
v 0.024352 0.006800 -0.070936
v 0.012191 0.010879 -0.073059
v 0.012345 0.006800 -0.073977
v 0.000000 0.010879 -0.074069
v 0.012191 0.010879 -0.073059
v 0.012345 0.006800 -0.073977
v -0.010516 0.461470 0.056255
v 0.000000 0.461470 0.057229
v -0.007673 0.464459 0.057292
v 0.000000 0.463423 0.057648
v 0.000000 0.465405 0.057905
v 0.000000 0.467400 0.058000
v -0.010657 0.467400 0.057012
v -0.016185 0.464459 0.055491
v -0.020952 0.467400 0.054083
v -0.025330 0.464459 0.051958
v -0.030533 0.467400 0.049312
v -0.030017 0.464459 0.049399
v -0.034682 0.464459 0.046243
v -0.030127 0.461470 0.048657
v -0.038555 0.461470 0.042293
v -0.039230 0.464459 0.042452
v -0.043550 0.464459 0.038008
v -0.039074 0.467400 0.042862
v -0.046285 0.467400 0.034953
v -0.047518 0.464459 0.032913
v -0.051919 0.467400 0.025853
v -0.051003 0.464459 0.027202
v -0.053877 0.464459 0.020940
v -0.051230 0.461470 0.025509
v -0.055045 0.461470 0.015662
v -0.056025 0.464459 0.014228
v -0.057353 0.464459 0.007197
v -0.055785 0.467400 0.015872
v -0.057752 0.467400 0.005352
v -0.057803 0.464459 0.000000
v -0.057752 0.467400 -0.005352
v -0.057353 0.464459 -0.007197
v -0.055785 0.467400 -0.015872
v -0.056025 0.464459 -0.014228
v -0.053877 0.464459 -0.020940
v -0.055045 0.461470 -0.015662
v -0.051230 0.461470 -0.025509
v -0.051003 0.464459 -0.027202
v -0.047518 0.464459 -0.032913
v -0.051919 0.467400 -0.025853
v -0.046285 0.467400 -0.034953
v -0.043550 0.464459 -0.038008
v -0.039074 0.467400 -0.042862
v -0.039230 0.464459 -0.042452
v -0.034682 0.464459 -0.046243
v -0.038555 0.461470 -0.042293
v -0.030127 0.461470 -0.048657
v -0.030017 0.464459 -0.049399
v -0.025330 0.464459 -0.051958
v -0.030533 0.467400 -0.049312
v -0.020952 0.467400 -0.054083
v -0.016185 0.464459 -0.055491
v -0.010657 0.467400 -0.057012
v -0.007673 0.464459 -0.057292
v 0.000000 0.467400 -0.058000
v 0.000000 0.465405 -0.057905
v 0.000000 0.463423 -0.057648
v 0.000000 0.461470 -0.057229
v -0.010516 0.461470 -0.056255
v -0.020674 0.461470 -0.053365
v -0.045670 0.461470 -0.034488
v -0.056985 0.461470 -0.005280
v -0.056985 0.461470 0.005280
v -0.045670 0.461470 0.034488
v -0.020674 0.461470 0.053365
v -0.010535 0.455250 -0.052962
v -0.009813 0.458189 -0.054072
v 0.000000 0.455250 -0.054000
v 0.000000 0.458189 -0.054955
v 0.000000 0.455250 -0.054000
v 0.000000 0.458189 -0.054955
v 0.009813 0.458189 -0.054072
v 0.000000 0.459221 -0.055961
v 0.010591 0.459221 -0.054949
v -0.019310 0.458189 -0.051451
v -0.020665 0.455250 -0.049889
v -0.028186 0.458189 -0.047176
v -0.030001 0.455250 -0.044899
v -0.036157 0.458189 -0.041385
v -0.038184 0.455250 -0.038184
v -0.042965 0.458189 -0.034264
v -0.044899 0.455250 -0.030001
v -0.048393 0.458189 -0.026041
v -0.049889 0.455250 -0.020665
v -0.052265 0.458189 -0.016982
v -0.052962 0.455250 -0.010535
v -0.054458 0.458189 -0.007377
v -0.054000 0.455250 0.000000
v -0.054900 0.458189 0.002466
v -0.052962 0.455250 0.010535
v -0.053577 0.458189 0.012229
v -0.049889 0.455250 0.020665
v -0.050533 0.458189 0.021599
v -0.044899 0.455250 0.030001
v -0.045864 0.458189 0.030274
v -0.039721 0.458189 0.037977
v -0.042292 0.459221 0.036647
v -0.034593 0.459221 0.043988
v -0.032302 0.458189 0.044459
v -0.025643 0.459221 0.049740
v -0.023844 0.458189 0.049513
v -0.015766 0.459221 0.053694
v -0.014620 0.458189 0.052974
v -0.005319 0.459221 0.055707
v -0.004926 0.458189 0.054734
v 0.004926 0.458189 0.054734
v 0.000000 0.455250 0.054000
v 0.010535 0.455250 0.052962
v -0.038184 0.455250 0.038184
v -0.030001 0.455250 0.044899
v -0.020665 0.455250 0.049889
v -0.010535 0.455250 0.052962
v 0.014620 0.458189 0.052974
v 0.020665 0.455250 0.049889
v 0.023844 0.458189 0.049513
v 0.030001 0.455250 0.044899
v 0.032302 0.458189 0.044459
v 0.038184 0.455250 0.038184
v 0.039721 0.458189 0.037977
v 0.044899 0.455250 0.030001
v 0.045864 0.458189 0.030274
v 0.049889 0.455250 0.020665
v 0.050533 0.458189 0.021599
v 0.053577 0.458189 0.012229
v 0.052883 0.459221 0.018303
v 0.055391 0.459221 0.007964
v 0.054900 0.458189 0.002466
v 0.055897 0.459221 -0.002663
v 0.054458 0.458189 -0.007377
v 0.054383 0.459221 -0.013193
v 0.052265 0.458189 -0.016982
v 0.050904 0.459221 -0.023247
v 0.048393 0.458189 -0.026041
v 0.045584 0.459221 -0.032460
v 0.042965 0.458189 -0.034264
v 0.038617 0.459221 -0.040501
v 0.036157 0.458189 -0.041385
v 0.030255 0.459221 -0.047077
v 0.028186 0.458189 -0.047176
v 0.020799 0.459221 -0.051952
v 0.019310 0.458189 -0.051451
v 0.052962 0.455250 0.010535
v 0.054000 0.455250 0.000000
v 0.052962 0.455250 -0.010535
v 0.049889 0.455250 -0.020665
v 0.044899 0.455250 -0.030001
v 0.038184 0.455250 -0.038184
v 0.030001 0.455250 -0.044899
v 0.020665 0.455250 -0.049889
v 0.010535 0.455250 -0.052962
v 0.048463 0.459221 0.027980
v 0.042292 0.459221 0.036647
v 0.034593 0.459221 0.043988
v 0.025643 0.459221 0.049740
v 0.015766 0.459221 0.053694
v 0.005319 0.459221 0.055707
v -0.048463 0.459221 0.027980
v -0.052883 0.459221 0.018303
v -0.055391 0.459221 0.007964
v -0.055897 0.459221 -0.002663
v -0.054383 0.459221 -0.013193
v -0.050904 0.459221 -0.023247
v -0.045584 0.459221 -0.032460
v -0.038617 0.459221 -0.040501
v -0.030255 0.459221 -0.047077
v -0.020799 0.459221 -0.051952
v -0.010591 0.459221 -0.054949
v 0.000000 0.459221 -0.055961
v -0.009813 0.458189 -0.054072
v -0.010516 0.461470 -0.056255
v 0.000000 0.461470 -0.057229
v 0.000000 0.459779 -0.056433
v 0.000000 0.459779 -0.056433
v 0.000000 0.461470 -0.057229
v 0.010516 0.461470 -0.056255
v 0.010680 0.459779 -0.055413
v 0.020674 0.461470 -0.053365
v 0.020974 0.459779 -0.052390
v 0.030127 0.461470 -0.048657
v 0.030510 0.459779 -0.047474
v 0.038555 0.461470 -0.042293
v 0.038943 0.459779 -0.040842
v 0.045670 0.461470 -0.034488
v 0.045969 0.459779 -0.032734
v 0.051230 0.461470 -0.025509
v 0.051333 0.459779 -0.023443
v 0.055045 0.461470 -0.015662
v 0.054842 0.459779 -0.013304
v 0.056985 0.461470 -0.005280
v 0.056369 0.459779 -0.002685
v 0.056985 0.461470 0.005280
v 0.055858 0.459779 0.008031
v 0.055045 0.461470 0.015662
v 0.053329 0.459779 0.018457
v 0.051230 0.461470 0.025509
v 0.048872 0.459779 0.028216
v 0.045670 0.461470 0.034488
v 0.042649 0.459779 0.036955
v 0.038555 0.461470 0.042293
v 0.034884 0.459779 0.044359
v 0.030127 0.461470 0.048657
v 0.025859 0.459779 0.050159
v 0.020674 0.461470 0.053365
v 0.015899 0.459779 0.054147
v 0.010516 0.461470 0.056255
v 0.005364 0.459779 0.056177
v 0.000000 0.461470 0.057229
v -0.005364 0.459779 0.056177
v -0.010516 0.461470 0.056255
v -0.015899 0.459779 0.054147
v -0.020674 0.461470 0.053365
v -0.025859 0.459779 0.050159
v -0.030127 0.461470 0.048657
v -0.034884 0.459779 0.044359
v -0.038555 0.461470 0.042293
v -0.042649 0.459779 0.036955
v -0.045670 0.461470 0.034488
v -0.048872 0.459779 0.028216
v -0.051230 0.461470 0.025509
v -0.053329 0.459779 0.018457
v -0.055045 0.461470 0.015662
v -0.055858 0.459779 0.008031
v -0.056985 0.461470 0.005280
v -0.056369 0.459779 -0.002685
v -0.056985 0.461470 -0.005280
v -0.054842 0.459779 -0.013304
v -0.055045 0.461470 -0.015662
v -0.051333 0.459779 -0.023443
v -0.051230 0.461470 -0.025509
v -0.045969 0.459779 -0.032734
v -0.045670 0.461470 -0.034488
v -0.038943 0.459779 -0.040842
v -0.038555 0.461470 -0.042293
v -0.030510 0.459779 -0.047474
v -0.030127 0.461470 -0.048657
v -0.020974 0.459779 -0.052390
v -0.020674 0.461470 -0.053365
v -0.010680 0.459779 -0.055413
v -0.010591 0.459221 -0.054949
v 0.000000 0.459221 -0.055961
v 0.010591 0.459221 -0.054949
v 0.010591 0.459221 -0.054949
v 0.020799 0.459221 -0.051952
v 0.030255 0.459221 -0.047077
v 0.038617 0.459221 -0.040501
v 0.045584 0.459221 -0.032460
v 0.050904 0.459221 -0.023247
v 0.054383 0.459221 -0.013193
v 0.055897 0.459221 -0.002663
v 0.055391 0.459221 0.007964
v 0.052883 0.459221 0.018303
v 0.048463 0.459221 0.027980
v 0.042292 0.459221 0.036647
v 0.034593 0.459221 0.043988
v 0.025643 0.459221 0.049740
v 0.015766 0.459221 0.053694
v 0.005319 0.459221 0.055707
v -0.005319 0.459221 0.055707
v -0.015766 0.459221 0.053694
v -0.025643 0.459221 0.049740
v -0.034593 0.459221 0.043988
v -0.042292 0.459221 0.036647
v -0.048463 0.459221 0.027980
v -0.052883 0.459221 0.018303
v -0.055391 0.459221 0.007964
v -0.055897 0.459221 -0.002663
v -0.054383 0.459221 -0.013193
v -0.050904 0.459221 -0.023247
v -0.045584 0.459221 -0.032460
v -0.038617 0.459221 -0.040501
v -0.030255 0.459221 -0.047077
v -0.020799 0.459221 -0.051952
v -0.010891 0.016749 -0.058260
v -0.010268 0.017246 -0.056583
v 0.000000 0.016749 -0.059269
v 0.000000 0.017246 -0.057508
v 0.000000 0.016749 -0.059269
v 0.000000 0.017246 -0.057508
v 0.010268 0.017246 -0.056583
v 0.000000 0.019460 -0.054952
v 0.009812 0.019460 -0.054069
v 0.000000 0.020550 -0.054400
v 0.010613 0.020550 -0.053355
v -0.020207 0.017246 -0.053841
v -0.021410 0.016749 -0.055266
v -0.029496 0.017246 -0.049367
v -0.031201 0.016749 -0.050391
v -0.037836 0.017246 -0.043307
v -0.039929 0.016749 -0.043800
v -0.044961 0.017246 -0.035855
v -0.047298 0.016749 -0.035717
v -0.050641 0.017246 -0.027251
v -0.053055 0.016749 -0.026418
v -0.054693 0.017246 -0.017771
v -0.057006 0.016749 -0.016220
v -0.056987 0.017246 -0.007719
v -0.059016 0.016749 -0.005469
v -0.057450 0.017246 0.002580
v -0.059016 0.016749 0.005469
v -0.056066 0.017246 0.012797
v -0.057006 0.016749 0.016220
v -0.052880 0.017246 0.022602
v -0.053055 0.016749 0.026418
v -0.047994 0.017246 0.031681
v -0.047298 0.016749 0.035717
v -0.041566 0.017246 0.039741
v -0.039929 0.016749 0.043800
v -0.033802 0.017246 0.046525
v -0.031201 0.016749 0.050391
v -0.024952 0.017246 0.051812
v -0.021410 0.016749 0.055266
v -0.015299 0.017246 0.055435
v -0.010891 0.016749 0.058260
v -0.005155 0.017246 0.057276
v 0.000000 0.016749 0.059269
v 0.005155 0.017246 0.057276
v 0.010891 0.016749 0.058260
v 0.015299 0.017246 0.055435
v 0.021410 0.016749 0.055266
v 0.024952 0.017246 0.051812
v 0.031201 0.016749 0.050391
v 0.033802 0.017246 0.046525
v 0.039929 0.016749 0.043800
v 0.041566 0.017246 0.039741
v 0.047298 0.016749 0.035717
v 0.047994 0.017246 0.031681
v 0.053055 0.016749 0.026418
v 0.052880 0.017246 0.022602
v 0.057006 0.016749 0.016220
v 0.056066 0.017246 0.012797
v 0.059016 0.016749 0.005469
v 0.057450 0.017246 0.002580
v 0.059016 0.016749 -0.005469
v 0.056987 0.017246 -0.007719
v 0.057006 0.016749 -0.016220
v 0.054693 0.017246 -0.017771
v 0.053055 0.016749 -0.026418
v 0.050641 0.017246 -0.027251
v 0.047298 0.016749 -0.035717
v 0.044961 0.017246 -0.035855
v 0.039929 0.016749 -0.043800
v 0.037836 0.017246 -0.043307
v 0.031201 0.016749 -0.050391
v 0.029496 0.017246 -0.049367
v 0.021410 0.016749 -0.055266
v 0.020207 0.017246 -0.053841
v 0.010891 0.016749 -0.058260
v 0.019309 0.019460 -0.051448
v 0.020818 0.020550 -0.050259
v 0.028185 0.019460 -0.047174
v 0.030223 0.020550 -0.045232
v 0.036155 0.019460 -0.041383
v 0.038467 0.020550 -0.038467
v 0.042964 0.019460 -0.034262
v 0.045232 0.020550 -0.030223
v 0.048391 0.019460 -0.026040
v 0.050259 0.020550 -0.020818
v 0.052263 0.019460 -0.016981
v 0.053355 0.020550 -0.010613
v 0.054455 0.019460 -0.007376
v 0.054400 0.020550 0.000000
v 0.054897 0.019460 0.002465
v 0.053355 0.020550 0.010613
v 0.053575 0.019460 0.012228
v 0.050259 0.020550 0.020818
v 0.050530 0.019460 0.021598
v 0.045232 0.020550 0.030223
v 0.045862 0.019460 0.030273
v 0.039719 0.019460 0.037976
v 0.038467 0.020550 0.038467
v 0.032300 0.019460 0.044457
v 0.030223 0.020550 0.045232
v 0.023843 0.019460 0.049510
v 0.020818 0.020550 0.050259
v 0.014619 0.019460 0.052972
v 0.010613 0.020550 0.053355
v 0.004926 0.019460 0.054731
v 0.000000 0.020550 0.054400
v -0.004926 0.019460 0.054731
v -0.010613 0.020550 0.053355
v -0.014619 0.019460 0.052972
v -0.020818 0.020550 0.050259
v -0.023843 0.019460 0.049510
v -0.030223 0.020550 0.045232
v -0.032300 0.019460 0.044457
v -0.038467 0.020550 0.038467
v -0.039719 0.019460 0.037976
v -0.045232 0.020550 0.030223
v -0.045862 0.019460 0.030273
v -0.050530 0.019460 0.021598
v -0.050259 0.020550 0.020818
v -0.053575 0.019460 0.012228
v -0.053355 0.020550 0.010613
v -0.054897 0.019460 0.002465
v -0.054400 0.020550 0.000000
v -0.054455 0.019460 -0.007376
v -0.053355 0.020550 -0.010613
v -0.052263 0.019460 -0.016981
v -0.050259 0.020550 -0.020818
v -0.048391 0.019460 -0.026040
v -0.045232 0.020550 -0.030223
v -0.042964 0.019460 -0.034262
v -0.038467 0.020550 -0.038467
v -0.036155 0.019460 -0.041383
v -0.030223 0.020550 -0.045232
v -0.028185 0.019460 -0.047174
v -0.020818 0.020550 -0.050259
v -0.019309 0.019460 -0.051448
v -0.010613 0.020550 -0.053355
v -0.009812 0.019460 -0.054069
v 0.000000 0.020550 -0.054400
v -0.009812 0.019460 -0.054069
v 0.011921 0.015597 -0.067606
v 0.000000 0.015366 -0.069472
v 0.000000 0.015597 -0.068649
v 0.000000 0.015597 -0.068649
v 0.000000 0.015366 -0.069472
v -0.012064 0.015366 -0.068417
v -0.011921 0.015597 -0.067606
v -0.023761 0.015366 -0.065282
v -0.023479 0.015597 -0.064509
v -0.034736 0.015366 -0.060165
v -0.034324 0.015597 -0.059452
v -0.044656 0.015366 -0.053219
v -0.044127 0.015597 -0.052588
v -0.053219 0.015366 -0.044656
v -0.052588 0.015597 -0.044127
v -0.060165 0.015366 -0.034736
v -0.059452 0.015597 -0.034324
v -0.065282 0.015366 -0.023761
v -0.064509 0.015597 -0.023479
v -0.068417 0.015366 -0.012064
v -0.067606 0.015597 -0.011921
v -0.069472 0.015366 0.000000
v -0.068649 0.015597 0.000000
v -0.068417 0.015366 0.012064
v -0.067606 0.015597 0.011921
v -0.065282 0.015366 0.023761
v -0.064509 0.015597 0.023479
v -0.060165 0.015366 0.034736
v -0.059452 0.015597 0.034324
v -0.053219 0.015366 0.044656
v -0.052588 0.015597 0.044127
v -0.044656 0.015366 0.053219
v -0.044127 0.015597 0.052588
v -0.034736 0.015366 0.060165
v -0.034324 0.015597 0.059452
v -0.023761 0.015366 0.065282
v -0.023479 0.015597 0.064509
v -0.012064 0.015366 0.068417
v -0.011921 0.015597 0.067606
v 0.000000 0.015366 0.069472
v 0.000000 0.015597 0.068649
v 0.012064 0.015366 0.068417
v 0.011921 0.015597 0.067606
v 0.023761 0.015366 0.065282
v 0.023479 0.015597 0.064509
v 0.034736 0.015366 0.060165
v 0.034324 0.015597 0.059452
v 0.044656 0.015366 0.053219
v 0.044127 0.015597 0.052588
v 0.053219 0.015366 0.044656
v 0.052588 0.015597 0.044127
v 0.060165 0.015366 0.034736
v 0.059452 0.015597 0.034324
v 0.065282 0.015366 0.023761
v 0.064509 0.015597 0.023479
v 0.068417 0.015366 0.012064
v 0.067606 0.015597 0.011921
v 0.069472 0.015366 0.000000
v 0.068649 0.015597 0.000000
v 0.068417 0.015366 -0.012064
v 0.067606 0.015597 -0.011921
v 0.065282 0.015366 -0.023761
v 0.064509 0.015597 -0.023479
v 0.060165 0.015366 -0.034736
v 0.059452 0.015597 -0.034324
v 0.053219 0.015366 -0.044656
v 0.052588 0.015597 -0.044127
v 0.044656 0.015366 -0.053219
v 0.044127 0.015597 -0.052588
v 0.034736 0.015366 -0.060165
v 0.034324 0.015597 -0.059452
v 0.023761 0.015366 -0.065282
v 0.023479 0.015597 -0.064509
v 0.012064 0.015366 -0.068417
v -0.010535 0.020550 -0.052962
v -0.010535 0.455250 -0.052962
v 0.000000 0.020550 -0.054000
v 0.000000 0.455250 -0.054000
v 0.010535 0.020550 -0.052962
v 0.010535 0.455250 -0.052962
v 0.020665 0.020550 -0.049889
v 0.020665 0.455250 -0.049889
v 0.030001 0.020550 -0.044899
v 0.030001 0.455250 -0.044899
v 0.038184 0.020550 -0.038184
v 0.038184 0.455250 -0.038184
v 0.044899 0.020550 -0.030001
v 0.044899 0.455250 -0.030001
v 0.049889 0.020550 -0.020665
v 0.049889 0.455250 -0.020665
v 0.052962 0.020550 -0.010535
v 0.052962 0.455250 -0.010535
v 0.054000 0.020550 0.000000
v 0.054000 0.455250 0.000000
v 0.052962 0.020550 0.010535
v 0.052962 0.455250 0.010535
v 0.049889 0.020550 0.020665
v 0.049889 0.455250 0.020665
v 0.044899 0.020550 0.030001
v 0.044899 0.455250 0.030001
v 0.038184 0.020550 0.038184
v 0.038184 0.455250 0.038184
v 0.030001 0.020550 0.044899
v 0.030001 0.455250 0.044899
v 0.020665 0.020550 0.049889
v 0.020665 0.455250 0.049889
v 0.010535 0.020550 0.052962
v 0.010535 0.455250 0.052962
v 0.000000 0.020550 0.054000
v 0.000000 0.455250 0.054000
v 0.000000 0.020550 0.054000
v 0.000000 0.455250 0.054000
v -0.010535 0.020550 0.052962
v -0.010535 0.455250 0.052962
v -0.020665 0.020550 0.049889
v -0.020665 0.455250 0.049889
v -0.030001 0.020550 0.044899
v -0.030001 0.455250 0.044899
v -0.038184 0.020550 0.038184
v -0.038184 0.455250 0.038184
v -0.044899 0.020550 0.030001
v -0.044899 0.455250 0.030001
v -0.049889 0.020550 0.020665
v -0.049889 0.455250 0.020665
v -0.052962 0.020550 0.010535
v -0.052962 0.455250 0.010535
v -0.054000 0.020550 0.000000
v -0.054000 0.455250 0.000000
v -0.052962 0.020550 -0.010535
v -0.052962 0.455250 -0.010535
v -0.049889 0.020550 -0.020665
v -0.049889 0.455250 -0.020665
v -0.044899 0.020550 -0.030001
v -0.044899 0.455250 -0.030001
v -0.038184 0.020550 -0.038184
v -0.038184 0.455250 -0.038184
v -0.030001 0.020550 -0.044899
v -0.030001 0.455250 -0.044899
v -0.020665 0.020550 -0.049889
v -0.020665 0.455250 -0.049889
v 0.010891 0.016749 -0.058260
v 0.011921 0.015597 -0.067606
v 0.000000 0.016749 -0.059269
v 0.000000 0.015597 -0.068649
v 0.000000 0.016749 -0.059269
v 0.000000 0.015597 -0.068649
v -0.011921 0.015597 -0.067606
v 0.023479 0.015597 -0.064509
v 0.021410 0.016749 -0.055266
v 0.034324 0.015597 -0.059452
v 0.031201 0.016749 -0.050391
v 0.044127 0.015597 -0.052588
v 0.039929 0.016749 -0.043800
v 0.052588 0.015597 -0.044127
v 0.047298 0.016749 -0.035717
v 0.059452 0.015597 -0.034324
v 0.053055 0.016749 -0.026418
v 0.064509 0.015597 -0.023479
v 0.057006 0.016749 -0.016220
v 0.067606 0.015597 -0.011921
v 0.059016 0.016749 -0.005469
v 0.068649 0.015597 0.000000
v 0.059016 0.016749 0.005469
v 0.067606 0.015597 0.011921
v 0.057006 0.016749 0.016220
v 0.064509 0.015597 0.023479
v 0.053055 0.016749 0.026418
v 0.059452 0.015597 0.034324
v 0.047298 0.016749 0.035717
v 0.052588 0.015597 0.044127
v 0.039929 0.016749 0.043800
v 0.044127 0.015597 0.052588
v 0.031201 0.016749 0.050391
v 0.034324 0.015597 0.059452
v 0.021410 0.016749 0.055266
v 0.023479 0.015597 0.064509
v 0.010891 0.016749 0.058260
v 0.011921 0.015597 0.067606
v 0.000000 0.016749 0.059269
v 0.000000 0.015597 0.068649
v -0.011921 0.015597 0.067606
v -0.010891 0.016749 0.058260
v -0.023479 0.015597 0.064509
v -0.021410 0.016749 0.055266
v -0.034324 0.015597 0.059452
v -0.031201 0.016749 0.050391
v -0.044127 0.015597 0.052588
v -0.039929 0.016749 0.043800
v -0.052588 0.015597 0.044127
v -0.047298 0.016749 0.035717
v -0.059452 0.015597 0.034324
v -0.053055 0.016749 0.026418
v -0.064509 0.015597 0.023479
v -0.057006 0.016749 0.016220
v -0.067606 0.015597 0.011921
v -0.059016 0.016749 0.005469
v -0.068649 0.015597 0.000000
v -0.059016 0.016749 -0.005469
v -0.067606 0.015597 -0.011921
v -0.057006 0.016749 -0.016220
v -0.064509 0.015597 -0.023479
v -0.053055 0.016749 -0.026418
v -0.059452 0.015597 -0.034324
v -0.047298 0.016749 -0.035717
v -0.052588 0.015597 -0.044127
v -0.039929 0.016749 -0.043800
v -0.044127 0.015597 -0.052588
v -0.031201 0.016749 -0.050391
v -0.034324 0.015597 -0.059452
v -0.021410 0.016749 -0.055266
v -0.023479 0.015597 -0.064509
v -0.010891 0.016749 -0.058260
v 0.012345 0.006800 -0.073977
v 0.012345 0.006800 0.073977
v 0.000000 0.006800 -0.075000
v 0.000000 0.006800 0.075000
v -0.012345 0.006800 -0.073977
v -0.012345 0.006800 0.073977
v -0.024352 0.006800 -0.070936
v -0.024352 0.006800 0.070936
v -0.035696 0.006800 -0.065961
v -0.035696 0.006800 0.065961
v -0.046066 0.006800 -0.059186
v -0.046066 0.006800 0.059186
v -0.055179 0.006800 -0.050796
v -0.055179 0.006800 0.050796
v -0.062787 0.006800 -0.041021
v -0.062787 0.006800 0.041021
v -0.068683 0.006800 -0.030127
v -0.068683 0.006800 0.030127
v -0.072705 0.006800 -0.018411
v -0.072705 0.006800 0.018411
v -0.074744 0.006800 -0.006193
v -0.074744 0.006800 0.006193
v 0.024352 0.006800 0.070936
v 0.024352 0.006800 -0.070936
v 0.035696 0.006800 0.065961
v 0.035696 0.006800 -0.065961
v 0.046066 0.006800 0.059186
v 0.046066 0.006800 -0.059186
v 0.055179 0.006800 0.050796
v 0.055179 0.006800 -0.050796
v 0.062787 0.006800 0.041021
v 0.062787 0.006800 -0.041021
v 0.068683 0.006800 0.030127
v 0.068683 0.006800 -0.030127
v 0.072705 0.006800 0.018411
v 0.072705 0.006800 -0.018411
v 0.074744 0.006800 0.006193
v 0.074744 0.006800 -0.006193
v 0.010657 0.467400 0.057012
v 0.010657 0.467400 -0.057012
v 0.000000 0.467400 0.058000
v 0.000000 0.467400 -0.058000
v -0.010657 0.467400 0.057012
v -0.010657 0.467400 -0.057012
v -0.020952 0.467400 0.054083
v -0.020952 0.467400 -0.054083
v -0.030533 0.467400 0.049312
v -0.030533 0.467400 -0.049312
v -0.039074 0.467400 0.042862
v -0.039074 0.467400 -0.042862
v -0.046285 0.467400 0.034953
v -0.046285 0.467400 -0.034953
v -0.051919 0.467400 0.025853
v -0.051919 0.467400 -0.025853
v -0.055785 0.467400 0.015872
v -0.055785 0.467400 -0.015872
v -0.057752 0.467400 0.005352
v -0.057752 0.467400 -0.005352
v 0.020952 0.467400 -0.054083
v 0.020952 0.467400 0.054083
v 0.030533 0.467400 -0.049312
v 0.030533 0.467400 0.049312
v 0.039074 0.467400 -0.042862
v 0.039074 0.467400 0.042862
v 0.046285 0.467400 -0.034953
v 0.046285 0.467400 0.034953
v 0.051919 0.467400 -0.025853
v 0.051919 0.467400 0.025853
v 0.055785 0.467400 -0.015872
v 0.055785 0.467400 0.015872
v 0.057752 0.467400 -0.005352
v 0.057752 0.467400 0.005352
v -0.010613 0.020550 -0.053355
v -0.010535 0.020550 -0.052962
v 0.000000 0.020550 -0.054400
v 0.000000 0.020550 -0.054000
v 0.010535 0.020550 -0.052962
v -0.020665 0.020550 -0.049889
v -0.020818 0.020550 -0.050259
v -0.030001 0.020550 -0.044899
v -0.030223 0.020550 -0.045232
v -0.038184 0.020550 -0.038184
v -0.038467 0.020550 -0.038467
v -0.044899 0.020550 -0.030001
v -0.045232 0.020550 -0.030223
v -0.049889 0.020550 -0.020665
v -0.050259 0.020550 -0.020818
v -0.052962 0.020550 -0.010535
v -0.053355 0.020550 -0.010613
v -0.054000 0.020550 0.000000
v -0.054400 0.020550 0.000000
v -0.053355 0.020550 0.010613
v -0.052962 0.020550 0.010535
v -0.050259 0.020550 0.020818
v -0.049889 0.020550 0.020665
v -0.045232 0.020550 0.030223
v -0.044899 0.020550 0.030001
v -0.038467 0.020550 0.038467
v -0.038184 0.020550 0.038184
v -0.030223 0.020550 0.045232
v -0.030001 0.020550 0.044899
v -0.020818 0.020550 0.050259
v -0.020665 0.020550 0.049889
v -0.010613 0.020550 0.053355
v -0.010535 0.020550 0.052962
v 0.000000 0.020550 0.054400
v 0.000000 0.020550 0.054000
v 0.010535 0.020550 0.052962
v 0.010613 0.020550 0.053355
v 0.020665 0.020550 0.049889
v 0.020818 0.020550 0.050259
v 0.030001 0.020550 0.044899
v 0.030223 0.020550 0.045232
v 0.038184 0.020550 0.038184
v 0.038467 0.020550 0.038467
v 0.044899 0.020550 0.030001
v 0.045232 0.020550 0.030223
v 0.049889 0.020550 0.020665
v 0.050259 0.020550 0.020818
v 0.052962 0.020550 0.010535
v 0.053355 0.020550 0.010613
v 0.054000 0.020550 0.000000
v 0.054400 0.020550 0.000000
v 0.053355 0.020550 -0.010613
v 0.052962 0.020550 -0.010535
v 0.050259 0.020550 -0.020818
v 0.049889 0.020550 -0.020665
v 0.045232 0.020550 -0.030223
v 0.044899 0.020550 -0.030001
v 0.038467 0.020550 -0.038467
v 0.038184 0.020550 -0.038184
v 0.030223 0.020550 -0.045232
v 0.030001 0.020550 -0.044899
v 0.020818 0.020550 -0.050259
v 0.020665 0.020550 -0.049889
v 0.010613 0.020550 -0.053355
vn 0.0000 -0.0880 -0.9961
vn -0.0000 -0.0061 -1.0000
vn 0.1317 -0.1269 -0.9831
vn 0.1837 -0.0061 -0.9830
vn 0.2777 -0.1269 -0.9522
vn 0.3612 -0.0061 -0.9325
vn 0.4346 -0.1268 -0.8916
vn 0.5264 -0.0061 -0.8502
vn 0.5151 -0.1269 -0.8477
vn 0.5952 -0.1268 -0.7935
vn 0.5098 -0.2496 -0.8233
vn 0.6524 -0.2496 -0.7156
vn 0.6732 -0.1269 -0.7285
vn 0.7473 -0.1268 -0.6522
vn 0.6737 -0.0061 -0.7390
vn 0.7980 -0.0061 -0.6026
vn 0.8154 -0.1269 -0.5648
vn 0.8951 -0.0061 -0.4457
vn 0.8752 -0.1269 -0.4668
vn 0.9245 -0.1268 -0.3593
vn 0.8668 -0.2496 -0.4316
vn 0.9314 -0.2496 -0.2650
vn 0.9614 -0.1268 -0.2442
vn 0.9842 -0.1268 -0.1235
vn 0.9618 -0.0061 -0.2737
vn 0.9957 -0.0061 -0.0923
vn 0.9919 -0.1268 0.0000
vn 0.9957 -0.0061 0.0923
vn 0.9842 -0.1269 0.1235
vn 0.9618 -0.0061 0.2737
vn 0.9614 -0.1269 0.2442
vn 0.9245 -0.1268 0.3593
vn 0.9314 -0.2496 0.2650
vn 0.8668 -0.2496 0.4316
vn 0.8752 -0.1269 0.4668
vn 0.8154 -0.1269 0.5648
vn 0.8951 -0.0061 0.4457
vn 0.7980 -0.0061 0.6026
vn 0.7473 -0.1268 0.6522
vn 0.6737 -0.0061 0.7390
vn 0.6732 -0.1269 0.7285
vn 0.5952 -0.1268 0.7935
vn 0.6524 -0.2496 0.7156
vn 0.5098 -0.2496 0.8233
vn 0.5151 -0.1268 0.8477
vn 0.4347 -0.1269 0.8916
vn 0.5264 -0.0061 0.8502
vn 0.3612 -0.0061 0.9325
vn 0.2777 -0.1268 0.9523
vn 0.1837 -0.0061 0.9830
vn 0.1317 -0.1269 0.9831
vn -0.0000 -0.0061 1.0000
vn -0.0000 -0.0880 0.9961
vn -0.0000 -0.1694 0.9856
vn 0.0000 -0.2496 0.9684
vn 0.1779 -0.2496 0.9519
vn 0.3498 -0.2496 0.9030
vn 0.7728 -0.2496 0.5836
vn 0.9642 -0.2496 0.0893
vn 0.9642 -0.2496 -0.0893
vn 0.7728 -0.2496 -0.5836
vn 0.3498 -0.2496 -0.9030
vn 0.1779 -0.2496 -0.9519
vn 0.0000 -0.2496 -0.9684
vn -0.0000 -0.1694 -0.9856
vn 0.0715 0.9112 -0.4057
vn 0.1026 0.7818 -0.6150
vn -0.0000 0.9112 -0.4120
vn 0.0000 0.7818 -0.6235
vn -0.1026 0.7818 -0.6150
vn -0.0000 0.4339 -0.9010
vn -0.1483 0.4339 -0.8887
vn -0.0000 -0.0000 -1.0000
vn -0.1646 -0.0000 -0.9864
vn 0.2024 0.7818 -0.5897
vn 0.1409 0.9112 -0.3871
vn 0.2967 0.7818 -0.5483
vn 0.2060 0.9112 -0.3568
vn 0.3830 0.7818 -0.4920
vn 0.2648 0.9112 -0.3156
vn 0.4587 0.7818 -0.4223
vn 0.3156 0.9112 -0.2648
vn 0.5220 0.7818 -0.3410
vn 0.3568 0.9112 -0.2060
vn 0.5710 0.7818 -0.2505
vn 0.3871 0.9112 -0.1409
vn 0.6044 0.7818 -0.1531
vn 0.4057 0.9112 -0.0715
vn 0.6213 0.7818 -0.0515
vn 0.4120 0.9112 0.0000
vn 0.6213 0.7818 0.0515
vn 0.4057 0.9112 0.0715
vn 0.6044 0.7818 0.1531
vn 0.3871 0.9112 0.1409
vn 0.5710 0.7818 0.2504
vn 0.3568 0.9112 0.2060
vn 0.5220 0.7818 0.3410
vn 0.3156 0.9112 0.2648
vn 0.4587 0.7818 0.4223
vn 0.2648 0.9112 0.3156
vn 0.3830 0.7818 0.4920
vn 0.2060 0.9112 0.3568
vn 0.2967 0.7818 0.5483
vn 0.1409 0.9112 0.3871
vn 0.2024 0.7818 0.5897
vn 0.0715 0.9112 0.4057
vn 0.1026 0.7818 0.6150
vn -0.0000 0.9112 0.4120
vn 0.0000 0.7818 0.6235
vn -0.1026 0.7818 0.6150
vn -0.1483 0.4339 0.8887
vn -0.2925 0.4339 0.8521
vn -0.3247 -0.0000 0.9458
vn -0.4759 -0.0000 0.8795
vn -0.4288 0.4339 0.7924
vn -0.6142 -0.0000 0.7891
vn -0.5534 0.4339 0.7110
vn -0.7357 -0.0000 0.6773
vn -0.6629 0.4339 0.6102
vn -0.8372 -0.0000 0.5469
vn -0.7543 0.4339 0.4928
vn -0.9158 -0.0000 0.4017
vn -0.8251 0.4339 0.3619
vn -0.9694 -0.0000 0.2455
vn -0.8734 0.4339 0.2212
vn -0.9966 -0.0000 0.0826
vn -0.8979 0.4339 0.0744
vn -0.9966 -0.0000 -0.0826
vn -0.8979 0.4339 -0.0744
vn -0.9694 -0.0000 -0.2455
vn -0.8734 0.4339 -0.2212
vn -0.9158 -0.0000 -0.4017
vn -0.8251 0.4339 -0.3619
vn -0.8372 -0.0000 -0.5470
vn -0.7543 0.4339 -0.4928
vn -0.7357 -0.0000 -0.6773
vn -0.6629 0.4339 -0.6102
vn -0.6142 -0.0000 -0.7891
vn -0.5534 0.4339 -0.7110
vn -0.4760 -0.0000 -0.8795
vn -0.4288 0.4339 -0.7924
vn -0.3247 -0.0000 -0.9458
vn -0.2925 0.4339 -0.8522
vn -0.0715 0.9112 0.4057
vn -0.2024 0.7818 0.5897
vn -0.1409 0.9112 0.3871
vn -0.2967 0.7818 0.5483
vn -0.2060 0.9112 0.3568
vn -0.3830 0.7818 0.4920
vn -0.2648 0.9112 0.3156
vn -0.4587 0.7818 0.4223
vn -0.3156 0.9112 0.2648
vn -0.5220 0.7818 0.3410
vn -0.3568 0.9112 0.2060
vn -0.5710 0.7818 0.2505
vn -0.3871 0.9112 0.1409
vn -0.6044 0.7818 0.1531
vn -0.4057 0.9112 0.0715
vn -0.6213 0.7818 0.0515
vn -0.4120 0.9112 -0.0000
vn -0.6213 0.7818 -0.0515
vn -0.4057 0.9112 -0.0715
vn -0.6044 0.7818 -0.1531
vn -0.3871 0.9112 -0.1409
vn -0.5710 0.7818 -0.2504
vn -0.3568 0.9112 -0.2060
vn -0.5220 0.7818 -0.3410
vn -0.3156 0.9112 -0.2648
vn -0.4587 0.7818 -0.4223
vn -0.2648 0.9112 -0.3156
vn -0.3830 0.7818 -0.4920
vn -0.2060 0.9112 -0.3568
vn -0.2967 0.7818 -0.5483
vn -0.1409 0.9112 -0.3871
vn -0.2024 0.7818 -0.5897
vn -0.0715 0.9112 -0.4057
vn -0.1646 -0.0000 0.9864
vn -0.0000 0.4339 0.9010
vn 0.0000 -0.0000 1.0000
vn 0.1483 0.4339 0.8887
vn 0.1646 -0.0000 0.9864
vn 0.2925 0.4339 0.8522
vn 0.3247 -0.0000 0.9458
vn 0.4288 0.4339 0.7924
vn 0.4760 -0.0000 0.8795
vn 0.5534 0.4339 0.7110
vn 0.6142 -0.0000 0.7891
vn 0.6629 0.4339 0.6102
vn 0.7357 -0.0000 0.6773
vn 0.7543 0.4339 0.4928
vn 0.8372 -0.0000 0.5470
vn 0.8251 0.4339 0.3619
vn 0.9158 -0.0000 0.4017
vn 0.8734 0.4339 0.2212
vn 0.9694 -0.0000 0.2455
vn 0.8979 0.4339 0.0744
vn 0.9966 -0.0000 0.0826
vn 0.8979 0.4339 -0.0744
vn 0.9966 -0.0000 -0.0826
vn 0.8734 0.4339 -0.2212
vn 0.9694 -0.0000 -0.2455
vn 0.8251 0.4339 -0.3619
vn 0.9158 -0.0000 -0.4017
vn 0.7543 0.4339 -0.4928
vn 0.8372 -0.0000 -0.5470
vn 0.6629 0.4339 -0.6102
vn 0.7357 -0.0000 -0.6773
vn 0.5534 0.4339 -0.7110
vn 0.6142 -0.0000 -0.7891
vn 0.4288 0.4339 -0.7924
vn 0.4759 -0.0000 -0.8795
vn 0.2925 0.4339 -0.8522
vn 0.3247 -0.0000 -0.9458
vn 0.1483 0.4339 -0.8887
vn 0.1646 0.0000 -0.9864
vn -0.1779 -0.2496 0.9519
vn -0.1317 -0.1269 0.9831
vn -0.1837 -0.0061 0.9830
vn -0.2777 -0.1269 0.9522
vn -0.3612 -0.0061 0.9325
vn -0.4346 -0.1268 0.8916
vn -0.5264 -0.0061 0.8502
vn -0.5151 -0.1269 0.8477
vn -0.5952 -0.1268 0.7935
vn -0.5098 -0.2496 0.8233
vn -0.6524 -0.2496 0.7156
vn -0.6732 -0.1269 0.7285
vn -0.7473 -0.1268 0.6522
vn -0.6737 -0.0061 0.7390
vn -0.7980 -0.0061 0.6026
vn -0.8154 -0.1269 0.5648
vn -0.8951 -0.0061 0.4457
vn -0.8752 -0.1269 0.4668
vn -0.9245 -0.1268 0.3593
vn -0.8668 -0.2496 0.4316
vn -0.9314 -0.2496 0.2650
vn -0.9614 -0.1268 0.2442
vn -0.9842 -0.1268 0.1235
vn -0.9618 -0.0061 0.2737
vn -0.9957 -0.0061 0.0923
vn -0.9919 -0.1268 -0.0000
vn -0.9957 -0.0061 -0.0923
vn -0.9842 -0.1269 -0.1235
vn -0.9618 -0.0061 -0.2737
vn -0.9614 -0.1269 -0.2442
vn -0.9245 -0.1268 -0.3593
vn -0.9314 -0.2496 -0.2650
vn -0.8668 -0.2496 -0.4316
vn -0.8752 -0.1269 -0.4668
vn -0.8154 -0.1269 -0.5648
vn -0.8951 -0.0061 -0.4457
vn -0.7980 -0.0061 -0.6026
vn -0.7473 -0.1268 -0.6522
vn -0.6737 -0.0061 -0.7390
vn -0.6732 -0.1269 -0.7285
vn -0.5952 -0.1268 -0.7935
vn -0.6524 -0.2496 -0.7156
vn -0.5098 -0.2496 -0.8233
vn -0.5151 -0.1268 -0.8477
vn -0.4347 -0.1269 -0.8916
vn -0.5264 -0.0061 -0.8502
vn -0.3612 -0.0061 -0.9325
vn -0.2777 -0.1268 -0.9523
vn -0.1837 -0.0061 -0.9830
vn -0.1317 -0.1269 -0.9831
vn -0.1779 -0.2496 -0.9519
vn -0.3498 -0.2496 -0.9030
vn -0.7728 -0.2496 -0.5836
vn -0.9642 -0.2496 -0.0893
vn -0.9642 -0.2496 0.0893
vn -0.7728 -0.2496 0.5836
vn -0.3498 -0.2496 0.9030
vn 0.0000 -1.0000 0.0000
vn 0.0000 1.0000 0.0000
vn -0.1951 0.0000 -0.9808
vn -0.1445 -0.5878 -0.7960
vn -0.0000 -0.5878 -0.8090
vn -0.0000 -0.5881 -0.8088
vn 0.1444 -0.5878 -0.7960
vn -0.0000 -0.7941 -0.6078
vn 0.1150 -0.7940 -0.5969
vn -0.2843 -0.5878 -0.7574
vn -0.3827 -0.0000 -0.9239
vn -0.4149 -0.5878 -0.6945
vn -0.5556 0.0000 -0.8315
vn -0.5323 -0.5878 -0.6093
vn -0.7071 -0.0000 -0.7071
vn -0.6325 -0.5878 -0.5044
vn -0.8315 0.0000 -0.5556
vn -0.7124 -0.5878 -0.3834
vn -0.9239 0.0000 -0.3827
vn -0.7694 -0.5878 -0.2500
vn -0.9808 0.0000 -0.1951
vn -0.8017 -0.5878 -0.1086
vn -1.0000 -0.0000 0.0000
vn -0.8082 -0.5878 0.0363
vn -0.9808 0.0000 0.1951
vn -0.7887 -0.5878 0.1800
vn -0.9239 -0.0000 0.3827
vn -0.7439 -0.5878 0.3180
vn -0.8315 0.0000 0.5556
vn -0.6752 -0.5878 0.4457
vn -0.5848 -0.5878 0.5591
vn -0.4594 -0.7941 0.3980
vn -0.3757 -0.7941 0.4778
vn -0.4755 -0.5878 0.6545
vn -0.2785 -0.7941 0.5403
vn -0.3510 -0.5878 0.7289
vn -0.1712 -0.7941 0.5832
vn -0.2152 -0.5878 0.7799
vn -0.0578 -0.7940 0.6051
vn -0.0725 -0.5878 0.8058
vn 0.0725 -0.5878 0.8058
vn 0.1951 -0.0000 0.9808
vn -0.7071 -0.0000 0.7071
vn -0.5556 -0.0000 0.8315
vn -0.3827 0.0000 0.9239
vn -0.1951 -0.0000 0.9808
vn 0.2152 -0.5878 0.7799
vn 0.3827 0.0000 0.9239
vn 0.3510 -0.5878 0.7289
vn 0.5556 -0.0000 0.8315
vn 0.4755 -0.5878 0.6545
vn 0.7071 -0.0000 0.7071
vn 0.5848 -0.5878 0.5591
vn 0.8315 -0.0000 0.5556
vn 0.6752 -0.5878 0.4457
vn 0.9239 0.0000 0.3827
vn 0.7439 -0.5878 0.3180
vn 0.7887 -0.5878 0.1800
vn 0.5744 -0.7941 0.1988
vn 0.6017 -0.7941 0.0865
vn 0.8082 -0.5878 0.0363
vn 0.6072 -0.7941 -0.0289
vn 0.8017 -0.5878 -0.1086
vn 0.5907 -0.7941 -0.1433
vn 0.7694 -0.5878 -0.2500
vn 0.5529 -0.7940 -0.2525
vn 0.7124 -0.5878 -0.3834
vn 0.4951 -0.7941 -0.3526
vn 0.6325 -0.5878 -0.5044
vn 0.4195 -0.7940 -0.4399
vn 0.5323 -0.5878 -0.6093
vn 0.3286 -0.7940 -0.5114
vn 0.4149 -0.5878 -0.6945
vn 0.2259 -0.7941 -0.5643
vn 0.2843 -0.5878 -0.7574
vn 0.9808 0.0000 0.1951
vn 1.0000 -0.0000 0.0000
vn 0.9808 0.0000 -0.1951
vn 0.9239 0.0000 -0.3827
vn 0.8315 0.0000 -0.5556
vn 0.7071 -0.0000 -0.7071
vn 0.5556 0.0000 -0.8315
vn 0.3827 -0.0000 -0.9239
vn 0.1951 0.0000 -0.9808
vn 0.5264 -0.7940 0.3039
vn 0.4594 -0.7941 0.3980
vn 0.3757 -0.7941 0.4778
vn 0.2785 -0.7941 0.5403
vn 0.1713 -0.7941 0.5832
vn 0.0578 -0.7940 0.6051
vn -0.5264 -0.7940 0.3039
vn -0.5744 -0.7941 0.1988
vn -0.6017 -0.7940 0.0865
vn -0.6072 -0.7941 -0.0289
vn -0.5907 -0.7941 -0.1433
vn -0.5529 -0.7940 -0.2525
vn -0.4951 -0.7941 -0.3526
vn -0.4195 -0.7941 -0.4399
vn -0.3286 -0.7940 -0.5114
vn -0.2259 -0.7941 -0.5643
vn -0.1150 -0.7940 -0.5969
vn -0.1779 -0.2495 -0.9519
vn -0.0000 -0.2495 -0.9684
vn 0.1779 -0.2495 -0.9519
vn 0.1531 -0.5878 -0.7944
vn 0.3007 -0.5878 -0.7511
vn 0.4374 -0.5878 -0.6806
vn 0.6524 -0.2495 -0.7156
vn 0.5583 -0.5878 -0.5855
vn 0.6590 -0.5878 -0.4693
vn 0.8668 -0.2495 -0.4316
vn 0.7359 -0.5878 -0.3361
vn 0.7862 -0.5878 -0.1907
vn 0.9642 -0.2496 -0.0894
vn 0.8081 -0.5878 -0.0385
vn 0.9642 -0.2496 0.0894
vn 0.8008 -0.5878 0.1151
vn 0.7645 -0.5878 0.2646
vn 0.7006 -0.5878 0.4045
vn 0.6114 -0.5878 0.5298
vn 0.6524 -0.2495 0.7156
vn 0.5001 -0.5878 0.6359
vn 0.3707 -0.5878 0.7191
vn 0.2279 -0.5878 0.7763
vn 0.0769 -0.5878 0.8054
vn -0.0769 -0.5878 0.8054
vn -0.2279 -0.5877 0.7763
vn -0.3707 -0.5878 0.7191
vn -0.5001 -0.5878 0.6359
vn -0.6524 -0.2495 0.7156
vn -0.6114 -0.5878 0.5298
vn -0.7006 -0.5878 0.4045
vn -0.7645 -0.5878 0.2646
vn -0.8008 -0.5878 0.1151
vn -0.9642 -0.2496 0.0894
vn -0.8081 -0.5878 -0.0385
vn -0.9642 -0.2496 -0.0894
vn -0.7862 -0.5878 -0.1907
vn -0.7359 -0.5878 -0.3361
vn -0.8668 -0.2495 -0.4316
vn -0.6590 -0.5878 -0.4693
vn -0.5583 -0.5878 -0.5855
vn -0.6524 -0.2495 -0.7156
vn -0.4374 -0.5878 -0.6806
vn -0.3007 -0.5878 -0.7511
vn -0.1531 -0.5878 -0.7944
vn -0.1352 -0.6995 -0.7017
vn 0.0000 -0.6994 -0.7147
vn 0.1353 -0.6994 -0.7018
vn 0.1352 -0.6995 -0.7017
vn 0.2656 -0.6994 -0.6635
vn 0.3864 -0.6995 -0.6012
vn 0.4932 -0.6995 -0.5172
vn 0.5822 -0.6995 -0.4145
vn 0.6501 -0.6995 -0.2969
vn 0.6946 -0.6994 -0.1685
vn 0.7139 -0.6995 -0.0340
vn 0.7074 -0.6995 0.1017
vn 0.6753 -0.6995 0.2338
vn 0.6189 -0.6995 0.3573
vn 0.5401 -0.6995 0.4680
vn 0.4418 -0.6995 0.5617
vn 0.3275 -0.6994 0.6353
vn 0.2013 -0.6995 0.6857
vn 0.0679 -0.6994 0.7115
vn -0.0679 -0.6995 0.7114
vn -0.2014 -0.6994 0.6858
vn -0.3275 -0.6995 0.6352
vn -0.4418 -0.6995 0.5618
vn -0.5401 -0.6995 0.4680
vn -0.6189 -0.6995 0.3573
vn -0.6754 -0.6995 0.2337
vn -0.7074 -0.6995 0.1017
vn -0.7139 -0.6995 -0.0340
vn -0.6945 -0.6995 -0.1685
vn -0.6501 -0.6994 -0.2969
vn -0.5821 -0.6995 -0.4145
vn -0.4932 -0.6995 -0.5172
vn -0.3864 -0.6994 -0.6012
vn -0.2656 -0.6995 -0.6635
vn -0.0224 0.9925 -0.1198
vn -0.0742 0.9096 -0.4087
vn 0.0000 0.9925 -0.1218
vn 0.0000 0.9096 -0.4154
vn 0.0742 0.9096 -0.4088
vn 0.0000 0.5407 -0.8412
vn 0.1502 0.5407 -0.8277
vn 0.0000 0.3590 -0.9333
vn 0.1821 0.3590 -0.9154
vn -0.1460 0.9096 -0.3889
vn -0.0440 0.9925 -0.1136
vn -0.2131 0.9096 -0.3566
vn -0.0642 0.9925 -0.1036
vn -0.2733 0.9096 -0.3129
vn -0.0821 0.9925 -0.0900
vn -0.3248 0.9096 -0.2590
vn -0.0973 0.9925 -0.0734
vn -0.3658 0.9096 -0.1969
vn -0.1091 0.9925 -0.0543
vn -0.3951 0.9096 -0.1284
vn -0.1172 0.9925 -0.0334
vn -0.4117 0.9096 -0.0558
vn -0.1214 0.9925 -0.0112
vn -0.4150 0.9096 0.0186
vn -0.1214 0.9925 0.0112
vn -0.4050 0.9096 0.0924
vn -0.1172 0.9925 0.0334
vn -0.3820 0.9096 0.1633
vn -0.1091 0.9925 0.0543
vn -0.3467 0.9096 0.2289
vn -0.0973 0.9925 0.0734
vn -0.3003 0.9096 0.2871
vn -0.0821 0.9925 0.0901
vn -0.2442 0.9096 0.3361
vn -0.0642 0.9925 0.1036
vn -0.1802 0.9096 0.3743
vn -0.0440 0.9925 0.1136
vn -0.1105 0.9096 0.4004
vn -0.0224 0.9925 0.1198
vn -0.0372 0.9096 0.4137
vn 0.0000 0.9925 0.1219
vn 0.0372 0.9096 0.4137
vn 0.0224 0.9925 0.1198
vn 0.1105 0.9096 0.4004
vn 0.0440 0.9925 0.1136
vn 0.1802 0.9096 0.3743
vn 0.0642 0.9925 0.1036
vn 0.2442 0.9096 0.3361
vn 0.0821 0.9925 0.0901
vn 0.3003 0.9096 0.2871
vn 0.0973 0.9925 0.0734
vn 0.3467 0.9096 0.2289
vn 0.1091 0.9925 0.0543
vn 0.3820 0.9096 0.1633
vn 0.1172 0.9925 0.0334
vn 0.4050 0.9096 0.0924
vn 0.1214 0.9925 0.0112
vn 0.4150 0.9096 0.0186
vn 0.1214 0.9925 -0.0112
vn 0.4116 0.9096 -0.0558
vn 0.1172 0.9925 -0.0334
vn 0.3951 0.9096 -0.1284
vn 0.1091 0.9925 -0.0543
vn 0.3658 0.9096 -0.1969
vn 0.0973 0.9925 -0.0734
vn 0.3248 0.9096 -0.2590
vn 0.0821 0.9925 -0.0900
vn 0.2733 0.9096 -0.3128
vn 0.0642 0.9925 -0.1036
vn 0.2131 0.9096 -0.3566
vn 0.0440 0.9925 -0.1136
vn 0.1460 0.9096 -0.3889
vn 0.0224 0.9925 -0.1198
vn 0.2956 0.5406 -0.7876
vn 0.3572 0.3590 -0.8623
vn 0.4315 0.5406 -0.7222
vn 0.5185 0.3590 -0.7760
vn 0.5535 0.5406 -0.6335
vn 0.6600 0.3590 -0.6600
vn 0.6577 0.5406 -0.5245
vn 0.7760 0.3590 -0.5185
vn 0.7408 0.5406 -0.3987
vn 0.8623 0.3590 -0.3572
vn 0.8001 0.5406 -0.2600
vn 0.9154 0.3590 -0.1821
vn 0.8336 0.5406 -0.1129
vn 0.9333 0.3590 -0.0000
vn 0.8404 0.5407 0.0377
vn 0.9154 0.3590 0.1821
vn 0.8202 0.5406 0.1872
vn 0.8623 0.3590 0.3572
vn 0.7735 0.5407 0.3306
vn 0.7760 0.3590 0.5185
vn 0.7021 0.5406 0.4634
vn 0.6081 0.5406 0.5814
vn 0.6600 0.3590 0.6600
vn 0.4945 0.5406 0.6806
vn 0.5185 0.3590 0.7760
vn 0.3650 0.5406 0.7579
vn 0.3572 0.3590 0.8623
vn 0.2238 0.5406 0.8110
vn 0.1821 0.3590 0.9154
vn 0.0754 0.5406 0.8379
vn 0.0000 0.3590 0.9333
vn -0.0754 0.5406 0.8379
vn -0.1821 0.3590 0.9154
vn -0.2238 0.5406 0.8109
vn -0.3572 0.3590 0.8623
vn -0.3650 0.5406 0.7579
vn -0.5185 0.3590 0.7760
vn -0.4945 0.5407 0.6806
vn -0.6600 0.3590 0.6600
vn -0.6081 0.5406 0.5814
vn -0.7760 0.3590 0.5185
vn -0.7021 0.5406 0.4634
vn -0.7735 0.5407 0.3306
vn -0.8623 0.3590 0.3572
vn -0.8202 0.5406 0.1872
vn -0.9154 0.3590 0.1821
vn -0.8404 0.5407 0.0378
vn -0.9333 0.3590 -0.0000
vn -0.8336 0.5407 -0.1129
vn -0.9154 0.3590 -0.1821
vn -0.8001 0.5407 -0.2600
vn -0.8623 0.3590 -0.3572
vn -0.7408 0.5406 -0.3986
vn -0.7760 0.3590 -0.5185
vn -0.6577 0.5406 -0.5245
vn -0.6600 0.3590 -0.6600
vn -0.5535 0.5407 -0.6335
vn -0.5185 0.3590 -0.7760
vn -0.4315 0.5407 -0.7222
vn -0.3572 0.3590 -0.8623
vn -0.2956 0.5406 -0.7876
vn -0.1821 0.3590 -0.9154
vn -0.1502 0.5406 -0.8277
vn -0.1502 0.5407 -0.8277
vn 0.0212 0.9925 -0.1200
vn 0.0000 0.9925 -0.1219
vn -0.0716 0.9112 -0.4057
vn -0.0212 0.9925 -0.1200
vn -0.1409 0.9112 -0.3872
vn -0.0417 0.9925 -0.1145
vn -0.0609 0.9925 -0.1055
vn -0.0783 0.9925 -0.0933
vn -0.0933 0.9925 -0.0783
vn -0.1055 0.9925 -0.0609
vn -0.3872 0.9112 -0.1409
vn -0.1145 0.9925 -0.0417
vn -0.1200 0.9925 -0.0212
vn -0.1219 0.9925 -0.0000
vn -0.1200 0.9925 0.0212
vn -0.3872 0.9112 0.1409
vn -0.1145 0.9925 0.0417
vn -0.1055 0.9925 0.0609
vn -0.0933 0.9925 0.0783
vn -0.0783 0.9925 0.0933
vn -0.0609 0.9925 0.1055
vn -0.1409 0.9112 0.3872
vn -0.0417 0.9925 0.1145
vn -0.0212 0.9925 0.1200
vn 0.0716 0.9112 0.4057
vn 0.0212 0.9925 0.1200
vn 0.1409 0.9112 0.3872
vn 0.0417 0.9925 0.1145
vn 0.0609 0.9925 0.1055
vn 0.0783 0.9925 0.0933
vn 0.0933 0.9925 0.0783
vn 0.1055 0.9925 0.0609
vn 0.3872 0.9112 0.1409
vn 0.1145 0.9925 0.0417
vn 0.1200 0.9925 0.0212
vn 0.1219 0.9925 0.0000
vn 0.1200 0.9925 -0.0212
vn 0.3872 0.9112 -0.1409
vn 0.1145 0.9925 -0.0417
vn 0.1055 0.9925 -0.0609
vn 0.0933 0.9925 -0.0783
vn 0.0783 0.9925 -0.0933
vn 0.0609 0.9925 -0.1055
vn 0.1409 0.9112 -0.3872
vn 0.0417 0.9925 -0.1145
vn 0.0209 0.9925 -0.1202
vn -0.0209 0.9925 -0.1202
vn 0.0415 0.9925 -0.1149
vn 0.0440 0.9926 -0.1135
vn 0.0609 0.9925 -0.1058
vn 0.0641 0.9926 -0.1036
vn 0.0784 0.9925 -0.0935
vn 0.0821 0.9926 -0.0900
vn 0.0935 0.9925 -0.0785
vn 0.0972 0.9926 -0.0734
vn 0.1056 0.9925 -0.0610
vn 0.1091 0.9926 -0.0543
vn 0.1146 0.9925 -0.0417
vn 0.1172 0.9925 -0.0333
vn 0.1200 0.9926 -0.0211
vn 0.1213 0.9926 -0.0112
vn 0.1213 0.9926 0.0112
vn 0.1146 0.9925 0.0417
vn 0.1091 0.9926 0.0543
vn 0.1056 0.9925 0.0610
vn 0.0972 0.9926 0.0734
vn 0.0935 0.9925 0.0785
vn 0.0821 0.9926 0.0900
vn 0.0784 0.9925 0.0935
vn 0.0641 0.9926 0.1036
vn 0.0609 0.9925 0.1058
vn 0.0440 0.9926 0.1135
vn 0.0416 0.9925 0.1146
vn 0.0209 0.9925 0.1202
vn -0.0209 0.9925 0.1202
vn -0.0415 0.9925 0.1149
vn -0.0440 0.9926 0.1135
vn -0.0609 0.9925 0.1058
vn -0.0641 0.9926 0.1036
vn -0.0784 0.9925 0.0935
vn -0.0821 0.9926 0.0900
vn -0.0935 0.9925 0.0785
vn -0.0972 0.9926 0.0734
vn -0.1056 0.9925 0.0610
vn -0.1091 0.9926 0.0543
vn -0.1146 0.9925 0.0417
vn -0.1172 0.9925 0.0333
vn -0.1200 0.9926 0.0211
vn -0.1213 0.9926 0.0112
vn -0.1213 0.9926 -0.0112
vn -0.1146 0.9925 -0.0417
vn -0.1091 0.9926 -0.0543
vn -0.1056 0.9925 -0.0610
vn -0.0972 0.9926 -0.0734
vn -0.0935 0.9925 -0.0785
vn -0.0821 0.9926 -0.0900
vn -0.0784 0.9925 -0.0935
vn -0.0641 0.9926 -0.1036
vn -0.0609 0.9925 -0.1058
vn -0.0440 0.9926 -0.1135
vn -0.0416 0.9925 -0.1146
usemtl M505050.004
s 1
f 1//1 2//2 3//3
f 3//3 2//2 4//4
f 3//3 4//4 5//5
f 5//5 4//4 6//6
f 5//5 6//6 7//7
f 7//7 6//6 8//8
f 7//7 8//8 9//9
f 9//9 8//8 10//10
f 9//9 10//10 11//11
f 11//11 10//10 12//12
f 12//12 10//10 13//13
f 12//12 13//13 14//14
f 14//14 13//13 15//15
f 14//14 15//15 16//16
f 8//8 15//15 10//10
f 10//10 15//15 13//13
f 14//14 16//16 17//17
f 17//17 16//16 18//18
f 17//17 18//18 19//19
f 19//19 18//18 20//20
f 19//19 20//20 21//21
f 21//21 20//20 22//22
f 22//22 20//20 23//23
f 22//22 23//23 24//24
f 24//24 23//23 25//25
f 24//24 25//25 26//26
f 18//18 25//25 20//20
f 20//20 25//25 23//23
f 24//24 26//26 27//27
f 27//27 26//26 28//28
f 27//27 28//28 29//29
f 29//29 28//28 30//30
f 29//29 30//30 31//31
f 31//31 30//30 32//32
f 31//31 32//32 33//33
f 33//33 32//32 34//34
f 34//34 32//32 35//35
f 34//34 35//35 36//36
f 36//36 35//35 37//37
f 36//36 37//37 38//38
f 30//30 37//37 32//32
f 32//32 37//37 35//35
f 36//36 38//38 39//39
f 39//39 38//38 40//40
f 39//39 40//40 41//41
f 41//41 40//40 42//42
f 41//41 42//42 43//43
f 43//43 42//42 44//44
f 44//44 42//42 45//45
f 44//44 45//45 46//46
f 46//46 45//45 47//47
f 46//46 47//47 48//48
f 40//40 47//47 42//42
f 42//42 47//47 45//45
f 46//46 48//48 49//49
f 49//49 48//48 50//50
f 49//49 50//50 51//51
f 51//51 50//50 52//52
f 51//51 52//52 53//53
f 53//53 54//54 51//51
f 51//51 54//54 55//55
f 51//51 55//55 56//56
f 51//51 56//56 49//49
f 49//49 56//56 57//57
f 49//49 57//57 46//46
f 46//46 57//57 44//44
f 41//41 43//43 39//39
f 39//39 43//43 58//58
f 39//39 58//58 36//36
f 36//36 58//58 34//34
f 31//31 33//33 29//29
f 29//29 33//33 59//59
f 29//29 59//59 27//27
f 27//27 59//59 60//60
f 27//27 60//60 24//24
f 24//24 60//60 22//22
f 19//19 21//21 17//17
f 17//17 21//21 61//61
f 17//17 61//61 14//14
f 14//14 61//61 12//12
f 9//9 11//11 7//7
f 7//7 11//11 62//62
f 7//7 62//62 5//5
f 5//5 62//62 63//63
f 5//5 63//63 3//3
f 3//3 63//63 64//64
f 3//3 64//64 65//65
f 65//65 1//1 3//3
f 66//66 67//67 68//68
f 68//68 67//67 69//69
f 70//68 71//69 72//70
f 72//70 71//69 73//71
f 72//70 73//71 74//72
f 74//72 73//71 75//73
f 74//72 75//73 76//74
f 67//67 66//66 77//75
f 77//75 66//66 78//76
f 77//75 78//76 79//77
f 79//77 78//76 80//78
f 79//77 80//78 81//79
f 81//79 80//78 82//80
f 81//79 82//80 83//81
f 83//81 82//80 84//82
f 83//81 84//82 85//83
f 85//83 84//82 86//84
f 85//83 86//84 87//85
f 87//85 86//84 88//86
f 87//85 88//86 89//87
f 89//87 88//86 90//88
f 89//87 90//88 91//89
f 91//89 90//88 92//90
f 91//89 92//90 93//91
f 93//91 92//90 94//92
f 93//91 94//92 95//93
f 95//93 94//92 96//94
f 95//93 96//94 97//95
f 97//95 96//94 98//96
f 97//95 98//96 99//97
f 99//97 98//96 100//98
f 99//97 100//98 101//99
f 101//99 100//98 102//100
f 101//99 102//100 103//101
f 103//101 102//100 104//102
f 103//101 104//102 105//103
f 105//103 104//102 106//104
f 105//103 106//104 107//105
f 107//105 106//104 108//106
f 107//105 108//106 109//107
f 109//107 108//106 110//108
f 109//107 110//108 111//109
f 111//109 110//108 112//110
f 111//109 112//110 113//111
f 113//111 112//110 114//112
f 113//111 114//112 115//113
f 115//113 114//112 116//114
f 116//114 114//112 117//115
f 116//114 117//115 118//116
f 118//116 117//115 119//117
f 118//116 119//117 120//118
f 120//118 119//117 121//119
f 120//118 121//119 122//120
f 122//120 121//119 123//121
f 122//120 123//121 124//122
f 124//122 123//121 125//123
f 124//122 125//123 126//124
f 126//124 125//123 127//125
f 126//124 127//125 128//126
f 128//126 127//125 129//127
f 128//126 129//127 130//128
f 130//128 129//127 131//129
f 130//128 131//129 132//130
f 132//130 131//129 133//131
f 132//130 133//131 134//132
f 134//132 133//131 135//133
f 134//132 135//133 136//134
f 136//134 135//133 137//135
f 136//134 137//135 138//136
f 138//136 137//135 139//137
f 138//136 139//137 140//138
f 140//138 139//137 141//139
f 140//138 141//139 142//140
f 142//140 141//139 143//141
f 142//140 143//141 144//142
f 144//142 143//141 145//143
f 144//142 145//143 76//74
f 76//74 145//143 74//72
f 110//108 146//144 112//110
f 112//110 146//144 147//145
f 112//110 147//145 114//112
f 114//112 147//145 117//115
f 146//144 148//146 147//145
f 147//145 148//146 149//147
f 147//145 149//147 117//115
f 117//115 149//147 119//117
f 148//146 150//148 149//147
f 149//147 150//148 151//149
f 149//147 151//149 119//117
f 119//117 151//149 121//119
f 150//148 152//150 151//149
f 151//149 152//150 153//151
f 151//149 153//151 121//119
f 121//119 153//151 123//121
f 152//150 154//152 153//151
f 153//151 154//152 155//153
f 153//151 155//153 123//121
f 123//121 155//153 125//123
f 154//152 156//154 155//153
f 155//153 156//154 157//155
f 155//153 157//155 125//123
f 125//123 157//155 127//125
f 156//154 158//156 157//155
f 157//155 158//156 159//157
f 157//155 159//157 127//125
f 127//125 159//157 129//127
f 158//156 160//158 159//157
f 159//157 160//158 161//159
f 159//157 161//159 129//127
f 129//127 161//159 131//129
f 160//158 162//160 161//159
f 161//159 162//160 163//161
f 161//159 163//161 131//129
f 131//129 163//161 133//131
f 162//160 164//162 163//161
f 163//161 164//162 165//163
f 163//161 165//163 133//131
f 133//131 165//163 135//133
f 164//162 166//164 165//163
f 165//163 166//164 167//165
f 165//163 167//165 135//133
f 135//133 167//165 137//135
f 166//164 168//166 167//165
f 167//165 168//166 169//167
f 167//165 169//167 137//135
f 137//135 169//167 139//137
f 168//166 170//168 169//167
f 169//167 170//168 171//169
f 169//167 171//169 139//137
f 139//137 171//169 141//139
f 170//168 172//170 171//169
f 171//169 172//170 173//171
f 171//169 173//171 141//139
f 141//139 173//171 143//141
f 172//170 174//172 173//171
f 173//171 174//172 175//173
f 173//171 175//173 143//141
f 143//141 175//173 145//143
f 174//172 176//174 175//173
f 175//173 176//174 177//175
f 175//173 177//175 145//143
f 145//143 177//175 74//72
f 176//174 178//176 177//175
f 177//175 178//176 72//70
f 177//175 72//70 74//72
f 178//176 70//68 72//70
f 115//113 179//177 113//111
f 113//111 179//177 180//178
f 113//111 180//178 111//109
f 111//109 180//178 109//107
f 179//177 181//179 180//178
f 180//178 181//179 182//180
f 180//178 182//180 109//107
f 109//107 182//180 107//105
f 181//179 183//181 182//180
f 182//180 183//181 184//182
f 182//180 184//182 107//105
f 107//105 184//182 105//103
f 183//181 185//183 184//182
f 184//182 185//183 186//184
f 184//182 186//184 105//103
f 105//103 186//184 103//101
f 185//183 187//185 186//184
f 186//184 187//185 188//186
f 186//184 188//186 103//101
f 103//101 188//186 101//99
f 187//185 189//187 188//186
f 188//186 189//187 190//188
f 188//186 190//188 101//99
f 101//99 190//188 99//97
f 189//187 191//189 190//188
f 190//188 191//189 192//190
f 190//188 192//190 99//97
f 99//97 192//190 97//95
f 191//189 193//191 192//190
f 192//190 193//191 194//192
f 192//190 194//192 97//95
f 97//95 194//192 95//93
f 193//191 195//193 194//192
f 194//192 195//193 196//194
f 194//192 196//194 95//93
f 95//93 196//194 93//91
f 195//193 197//195 196//194
f 196//194 197//195 198//196
f 196//194 198//196 93//91
f 93//91 198//196 91//89
f 197//195 199//197 198//196
f 198//196 199//197 200//198
f 198//196 200//198 91//89
f 91//89 200//198 89//87
f 199//197 201//199 200//198
f 200//198 201//199 202//200
f 200//198 202//200 89//87
f 89//87 202//200 87//85
f 201//199 203//201 202//200
f 202//200 203//201 204//202
f 202//200 204//202 87//85
f 87//85 204//202 85//83
f 203//201 205//203 204//202
f 204//202 205//203 206//204
f 204//202 206//204 85//83
f 85//83 206//204 83//81
f 205//203 207//205 206//204
f 206//204 207//205 208//206
f 206//204 208//206 83//81
f 83//81 208//206 81//79
f 207//205 209//207 208//206
f 208//206 209//207 210//208
f 208//206 210//208 81//79
f 81//79 210//208 79//77
f 209//207 211//209 210//208
f 210//208 211//209 212//210
f 210//208 212//210 79//77
f 79//77 212//210 77//75
f 211//209 213//211 212//210
f 212//210 213//211 214//212
f 212//210 214//212 77//75
f 77//75 214//212 67//67
f 213//211 215//213 214//212
f 214//212 215//213 216//214
f 214//212 216//214 67//67
f 67//67 216//214 69//69
f 215//213 217//215 216//214
f 216//214 217//215 218//71
f 219//214 73//71 71//69
f 220//215 75//73 73//71
f 221//216 222//55 223//217
f 223//217 222//55 224//54
f 223//217 224//54 225//53
f 225//53 226//52 223//217
f 223//217 226//52 227//218
f 223//217 227//218 228//219
f 228//219 227//218 229//220
f 228//219 229//220 230//221
f 230//221 229//220 231//222
f 230//221 231//222 232//223
f 232//223 231//222 233//224
f 232//223 233//224 234//225
f 234//225 233//224 235//226
f 235//226 233//224 236//227
f 235//226 236//227 237//228
f 237//228 236//227 238//229
f 237//228 238//229 239//230
f 231//222 238//229 233//224
f 233//224 238//229 236//227
f 237//228 239//230 240//231
f 240//231 239//230 241//232
f 240//231 241//232 242//233
f 242//233 241//232 243//234
f 242//233 243//234 244//235
f 244//235 243//234 245//236
f 245//236 243//234 246//237
f 245//236 246//237 247//238
f 247//238 246//237 248//239
f 247//238 248//239 249//240
f 241//232 248//239 243//234
f 243//234 248//239 246//237
f 247//238 249//240 250//241
f 250//241 249//240 251//242
f 250//241 251//242 252//243
f 252//243 251//242 253//244
f 252//243 253//244 254//245
f 254//245 253//244 255//246
f 254//245 255//246 256//247
f 256//247 255//246 257//248
f 257//248 255//246 258//249
f 257//248 258//249 259//250
f 259//250 258//249 260//251
f 259//250 260//251 261//252
f 253//244 260//251 255//246
f 255//246 260//251 258//249
f 259//250 261//252 262//253
f 262//253 261//252 263//254
f 262//253 263//254 264//255
f 264//255 263//254 265//256
f 264//255 265//256 266//257
f 266//257 265//256 267//258
f 267//258 265//256 268//259
f 267//258 268//259 269//260
f 269//260 268//259 270//261
f 269//260 270//261 271//262
f 263//254 270//261 265//256
f 265//256 270//261 268//259
f 269//260 271//262 272//263
f 272//263 271//262 273//264
f 272//263 273//264 274//265
f 274//265 273//264 275//2
f 274//265 275//2 276//1
f 276//1 277//65 274//265
f 274//265 277//65 278//64
f 274//265 278//64 279//266
f 274//265 279//266 272//263
f 272//263 279//266 280//267
f 272//263 280//267 269//260
f 269//260 280//267 267//258
f 264//255 266//257 262//253
f 262//253 266//257 281//268
f 262//253 281//268 259//250
f 259//250 281//268 257//248
f 254//245 256//247 252//243
f 252//243 256//247 282//269
f 252//243 282//269 250//241
f 250//241 282//269 283//270
f 250//241 283//270 247//238
f 247//238 283//270 245//236
f 242//233 244//235 240//231
f 240//231 244//235 284//271
f 240//231 284//271 237//228
f 237//228 284//271 235//226
f 232//223 234//225 230//221
f 230//221 234//225 285//272
f 230//221 285//272 228//219
f 228//219 285//272 221//216
f 228//219 221//216 223//217
usemtl M180180180.002
s off
f 845//273 846//273 847//273
f 847//273 846//273 848//273
f 847//273 848//273 849//273
f 849//273 848//273 850//273
f 849//273 850//273 851//273
f 851//273 850//273 852//273
f 851//273 852//273 853//273
f 853//273 852//273 854//273
f 853//273 854//273 855//273
f 855//273 854//273 856//273
f 855//273 856//273 857//273
f 857//273 856//273 858//273
f 857//273 858//273 859//273
f 859//273 858//273 860//273
f 859//273 860//273 861//273
f 861//273 860//273 862//273
f 861//273 862//273 863//273
f 863//273 862//273 864//273
f 863//273 864//273 865//273
f 865//273 864//273 866//273
f 846//273 845//273 867//273
f 867//273 845//273 868//273
f 867//273 868//273 869//273
f 869//273 868//273 870//273
f 869//273 870//273 871//273
f 871//273 870//273 872//273
f 871//273 872//273 873//273
f 873//273 872//273 874//273
f 873//273 874//273 875//273
f 875//273 874//273 876//273
f 875//273 876//273 877//273
f 877//273 876//273 878//273
f 877//273 878//273 879//273
f 879//273 878//273 880//273
f 879//273 880//273 881//273
f 881//273 880//273 882//273
f 883//274 884//274 885//274
f 885//274 884//274 886//274
f 885//274 886//274 887//274
f 887//274 886//274 888//274
f 887//274 888//274 889//274
f 889//274 888//274 890//274
f 889//274 890//274 891//274
f 891//274 890//274 892//274
f 891//274 892//274 893//274
f 893//274 892//274 894//274
f 893//274 894//274 895//274
f 895//274 894//274 896//274
f 895//274 896//274 897//274
f 897//274 896//274 898//274
f 897//274 898//274 899//274
f 899//274 898//274 900//274
f 899//274 900//274 901//274
f 901//274 900//274 902//274
f 884//274 883//274 903//274
f 903//274 883//274 904//274
f 903//274 904//274 905//274
f 905//274 904//274 906//274
f 905//274 906//274 907//274
f 907//274 906//274 908//274
f 907//274 908//274 909//274
f 909//274 908//274 910//274
f 909//274 910//274 911//274
f 911//274 910//274 912//274
f 911//274 912//274 913//274
f 913//274 912//274 914//274
f 913//274 914//274 915//274
f 915//274 914//274 916//274
f 917//274 918//274 919//274
f 919//274 918//274 920//274
f 919//274 920//274 921//274
f 918//274 917//274 922//274
f 922//274 917//274 923//274
f 922//274 923//274 924//274
f 924//274 923//274 925//274
f 924//274 925//274 926//274
f 926//274 925//274 927//274
f 926//274 927//274 928//274
f 928//274 927//274 929//274
f 928//274 929//274 930//274
f 930//274 929//274 931//274
f 930//274 931//274 932//274
f 932//274 931//274 933//274
f 932//274 933//274 934//274
f 934//274 933//274 935//274
f 934//274 935//274 936//274
f 934//274 936//274 937//274
f 937//274 936//274 938//274
f 937//274 938//274 939//274
f 939//274 938//274 940//274
f 939//274 940//274 941//274
f 941//274 940//274 942//274
f 941//274 942//274 943//274
f 943//274 942//274 944//274
f 943//274 944//274 945//274
f 945//274 944//274 946//274
f 945//274 946//274 947//274
f 947//274 946//274 948//274
f 947//274 948//274 949//274
f 949//274 948//274 950//274
f 949//274 950//274 951//274
f 951//274 950//274 952//274
f 952//274 950//274 953//274
f 952//274 953//274 954//274
f 954//274 953//274 955//274
f 954//274 955//274 956//274
f 956//274 955//274 957//274
f 956//274 957//274 958//274
f 958//274 957//274 959//274
f 958//274 959//274 960//274
f 960//274 959//274 961//274
f 960//274 961//274 962//274
f 962//274 961//274 963//274
f 962//274 963//274 964//274
f 964//274 963//274 965//274
f 964//274 965//274 966//274
f 966//274 965//274 967//274
f 966//274 967//274 968//274
f 966//274 968//274 969//274
f 969//274 968//274 970//274
f 969//274 970//274 971//274
f 971//274 970//274 972//274
f 971//274 972//274 973//274
f 973//274 972//274 974//274
f 973//274 974//274 975//274
f 975//274 974//274 976//274
f 975//274 976//274 977//274
f 977//274 976//274 978//274
f 977//274 978//274 979//274
f 979//274 978//274 980//274
f 979//274 980//274 921//274
f 921//274 980//274 919//274
s 1
f 286//275 287//276 288//73
f 288//73 287//276 289//277
f 290//73 291//278 292//279
f 292//279 291//278 293//280
f 292//279 293//280 294//281
f 287//276 286//275 295//282
f 295//282 286//275 296//283
f 295//282 296//283 297//284
f 297//284 296//283 298//285
f 297//284 298//285 299//286
f 299//286 298//285 300//287
f 299//286 300//287 301//288
f 301//288 300//287 302//289
f 301//288 302//289 303//290
f 303//290 302//289 304//291
f 303//290 304//291 305//292
f 305//292 304//291 306//293
f 305//292 306//293 307//294
f 307//294 306//293 308//295
f 307//294 308//295 309//296
f 309//296 308//295 310//297
f 309//296 310//297 311//298
f 311//298 310//297 312//299
f 311//298 312//299 313//300
f 313//300 312//299 314//301
f 313//300 314//301 315//302
f 315//302 314//301 316//303
f 315//302 316//303 317//304
f 317//304 316//303 318//305
f 318//305 316//303 319//306
f 318//305 319//306 320//307
f 320//307 319//306 321//308
f 320//307 321//308 322//309
f 322//309 321//308 323//310
f 322//309 323//310 324//311
f 324//311 323//310 325//312
f 324//311 325//312 326//313
f 326//313 325//312 327//179
f 326//313 327//179 328//314
f 314//301 329//315 316//303
f 316//303 329//315 319//306
f 329//315 330//316 319//306
f 319//306 330//316 321//308
f 330//316 331//317 321//308
f 321//308 331//317 323//310
f 331//317 332//318 323//310
f 323//310 332//318 325//312
f 332//318 327//179 325//312
f 326//313 328//314 333//319
f 333//319 328//314 334//320
f 333//319 334//320 335//321
f 335//321 334//320 336//322
f 335//321 336//322 337//323
f 337//323 336//322 338//324
f 337//323 338//324 339//325
f 339//325 338//324 340//326
f 339//325 340//326 341//327
f 341//327 340//326 342//328
f 341//327 342//328 343//329
f 343//329 342//328 344//330
f 343//329 344//330 345//331
f 345//331 344//330 346//332
f 346//332 344//330 347//333
f 346//332 347//333 348//334
f 348//334 347//333 349//335
f 348//334 349//335 350//336
f 350//336 349//335 351//337
f 350//336 351//337 352//338
f 352//338 351//337 353//339
f 352//338 353//339 354//340
f 354//340 353//339 355//341
f 354//340 355//341 356//342
f 356//342 355//341 357//343
f 356//342 357//343 358//344
f 358//344 357//343 359//345
f 358//344 359//345 360//346
f 360//346 359//345 361//347
f 360//346 361//347 294//281
f 294//281 361//347 292//279
f 342//328 362//348 344//330
f 344//330 362//348 347//333
f 362//348 363//349 347//333
f 347//333 363//349 349//335
f 363//349 364//350 349//335
f 349//335 364//350 351//337
f 364//350 365//351 351//337
f 351//337 365//351 353//339
f 365//351 366//352 353//339
f 353//339 366//352 355//341
f 366//352 367//353 355//341
f 355//341 367//353 357//343
f 367//353 368//354 357//343
f 357//343 368//354 359//345
f 368//354 369//355 359//345
f 359//345 369//355 361//347
f 369//355 370//356 361//347
f 361//347 370//356 292//279
f 370//356 290//73 292//279
f 345//331 371//357 343//329
f 343//329 371//357 341//327
f 371//357 372//358 341//327
f 341//327 372//358 339//325
f 372//358 373//359 339//325
f 339//325 373//359 337//323
f 373//359 374//360 337//323
f 337//323 374//360 335//321
f 374//360 375//361 335//321
f 335//321 375//361 333//319
f 375//361 376//362 333//319
f 333//319 376//362 326//313
f 376//362 324//311 326//313
f 317//304 377//363 315//302
f 315//302 377//363 313//300
f 377//363 378//364 313//300
f 313//300 378//364 311//298
f 378//364 379//365 311//298
f 311//298 379//365 309//296
f 379//365 380//366 309//296
f 309//296 380//366 307//294
f 380//366 381//367 307//294
f 307//294 381//367 305//292
f 381//367 382//368 305//292
f 305//292 382//368 303//290
f 382//368 383//369 303//290
f 303//290 383//369 301//288
f 383//369 384//370 301//288
f 301//288 384//370 299//286
f 384//370 385//371 299//286
f 299//286 385//371 297//284
f 385//371 386//372 297//284
f 297//284 386//372 295//282
f 386//372 387//373 295//282
f 295//282 387//373 287//276
f 387//373 388//280 287//276
f 389//276 293//280 291//278
f 390//374 391//375 392//277
f 393//277 394//375 395//376
f 393//277 395//376 396//377
f 396//377 395//376 397//62
f 396//377 397//62 398//378
f 398//378 397//62 399//11
f 398//378 399//11 400//379
f 400//379 399//11 401//380
f 400//379 401//380 402//381
f 402//381 401//380 403//61
f 402//381 403//61 404//382
f 404//382 403//61 405//383
f 404//382 405//383 406//384
f 406//384 405//383 407//22
f 406//384 407//22 408//385
f 408//385 407//22 409//386
f 408//385 409//386 410//387
f 410//387 409//386 411//388
f 410//387 411//388 412//389
f 412//389 411//388 413//33
f 412//389 413//33 414//390
f 414//390 413//33 415//34
f 414//390 415//34 416//391
f 416//391 415//34 417//58
f 416//391 417//58 418//392
f 418//392 417//58 419//393
f 418//392 419//393 420//394
f 420//394 419//393 421//44
f 420//394 421//44 422//395
f 422//395 421//44 423//57
f 422//395 423//57 424//396
f 424//396 423//57 425//56
f 424//396 425//56 426//397
f 426//397 425//56 427//55
f 426//397 427//55 428//398
f 428//398 427//55 429//216
f 428//398 429//216 430//399
f 430//399 429//216 431//272
f 430//399 431//272 432//400
f 432//400 431//272 433//225
f 432//400 433//225 434//401
f 434//401 433//225 435//402
f 434//401 435//402 436//403
f 436//403 435//402 437//271
f 436//403 437//271 438//404
f 438//404 437//271 439//235
f 438//404 439//235 440//405
f 440//405 439//235 441//236
f 440//405 441//236 442//406
f 442//406 441//236 443//407
f 442//406 443//407 444//408
f 444//408 443//407 445//409
f 444//408 445//409 446//410
f 446//410 445//409 447//247
f 446//410 447//247 448//411
f 448//411 447//247 449//412
f 448//411 449//412 450//413
f 450//413 449//412 451//268
f 450//413 451//268 452//414
f 452//414 451//268 453//415
f 452//414 453//415 454//416
f 454//416 453//415 455//258
f 454//416 455//258 456//417
f 456//417 455//258 457//267
f 456//417 457//267 458//418
f 458//418 457//267 390//374
f 458//418 390//374 392//277
f 459//419 458//418 460//420
f 460//420 458//418 392//277
f 460//420 392//277 461//421
f 462//422 393//277 396//377
f 462//422 396//377 463//423
f 463//423 396//377 398//378
f 463//423 398//378 464//424
f 464//424 398//378 400//379
f 464//424 400//379 465//425
f 465//425 400//379 402//381
f 465//425 402//381 466//426
f 466//426 402//381 404//382
f 466//426 404//382 467//427
f 467//427 404//382 406//384
f 467//427 406//384 468//428
f 468//428 406//384 408//385
f 468//428 408//385 469//429
f 469//429 408//385 410//387
f 469//429 410//387 470//430
f 470//430 410//387 412//389
f 470//430 412//389 471//431
f 471//431 412//389 414//390
f 471//431 414//390 472//432
f 472//432 414//390 416//391
f 472//432 416//391 473//433
f 473//433 416//391 418//392
f 473//433 418//392 474//434
f 474//434 418//392 420//394
f 474//434 420//394 475//435
f 475//435 420//394 422//395
f 475//435 422//395 476//436
f 476//436 422//395 424//396
f 476//436 424//396 477//437
f 477//437 424//396 426//397
f 477//437 426//397 478//438
f 478//438 426//397 428//398
f 478//438 428//398 479//439
f 479//439 428//398 430//399
f 479//439 430//399 480//440
f 480//440 430//399 432//400
f 480//440 432//400 481//441
f 481//441 432//400 434//401
f 481//441 434//401 482//442
f 482//442 434//401 436//403
f 482//442 436//403 483//443
f 483//443 436//403 438//404
f 483//443 438//404 484//444
f 484//444 438//404 440//405
f 484//444 440//405 485//445
f 485//445 440//405 442//406
f 485//445 442//406 486//446
f 486//446 442//406 444//408
f 486//446 444//408 487//447
f 487//447 444//408 446//410
f 487//447 446//410 488//448
f 488//448 446//410 448//411
f 488//448 448//411 489//449
f 489//449 448//411 450//413
f 489//449 450//413 490//450
f 490//450 450//413 452//414
f 490//450 452//414 491//451
f 491//451 452//414 454//416
f 491//451 454//416 492//452
f 492//452 454//416 456//417
f 492//452 456//417 459//419
f 459//419 456//417 458//418
f 493//453 494//454 495//455
f 495//455 494//454 496//456
f 497//455 498//456 499//457
f 499//457 498//456 500//458
f 499//457 500//458 501//459
f 501//459 500//458 502//460
f 501//459 502//460 503//461
f 494//454 493//453 504//462
f 504//462 493//453 505//463
f 504//462 505//463 506//464
f 506//464 505//463 507//465
f 506//464 507//465 508//466
f 508//466 507//465 509//467
f 508//466 509//467 510//468
f 510//468 509//467 511//469
f 510//468 511//469 512//470
f 512//470 511//469 513//471
f 512//470 513//471 514//472
f 514//472 513//471 515//473
f 514//472 515//473 516//474
f 516//474 515//473 517//475
f 516//474 517//475 518//476
f 518//476 517//475 519//477
f 518//476 519//477 520//478
f 520//478 519//477 521//479
f 520//478 521//479 522//480
f 522//480 521//479 523//481
f 522//480 523//481 524//482
f 524//482 523//481 525//483
f 524//482 525//483 526//484
f 526//484 525//483 527//485
f 526//484 527//485 528//486
f 528//486 527//485 529//487
f 528//486 529//487 530//488
f 530//488 529//487 531//489
f 530//488 531//489 532//490
f 532//490 531//489 533//491
f 532//490 533//491 534//492
f 534//492 533//491 535//493
f 534//492 535//493 536//494
f 536//494 535//493 537//495
f 536//494 537//495 538//496
f 538//496 537//495 539//497
f 538//496 539//497 540//498
f 540//498 539//497 541//499
f 540//498 541//499 542//500
f 542//500 541//499 543//501
f 542//500 543//501 544//502
f 544//502 543//501 545//503
f 544//502 545//503 546//504
f 546//504 545//503 547//505
f 546//504 547//505 548//506
f 548//506 547//505 549//507
f 548//506 549//507 550//508
f 550//508 549//507 551//509
f 550//508 551//509 552//510
f 552//510 551//509 553//511
f 552//510 553//511 554//512
f 554//512 553//511 555//513
f 554//512 555//513 556//514
f 556//514 555//513 557//515
f 556//514 557//515 558//516
f 558//516 557//515 559//517
f 558//516 559//517 560//518
f 560//518 559//517 561//519
f 560//518 561//519 562//520
f 562//520 561//519 563//521
f 562//520 563//521 564//522
f 564//522 563//521 565//523
f 564//522 565//523 566//524
f 566//524 565//523 567//525
f 566//524 567//525 499//457
f 499//457 567//525 497//455
f 501//459 503//461 568//526
f 568//526 503//461 569//527
f 568//526 569//527 570//528
f 570//528 569//527 571//529
f 570//528 571//529 572//530
f 572//530 571//529 573//531
f 572//530 573//531 574//532
f 574//532 573//531 575//533
f 574//532 575//533 576//534
f 576//534 575//533 577//535
f 576//534 577//535 578//536
f 578//536 577//535 579//537
f 578//536 579//537 580//538
f 580//538 579//537 581//539
f 580//538 581//539 582//540
f 582//540 581//539 583//541
f 582//540 583//541 584//542
f 584//542 583//541 585//543
f 584//542 585//543 586//544
f 586//544 585//543 587//545
f 586//544 587//545 588//546
f 588//546 587//545 589//547
f 588//546 589//547 544//502
f 544//502 589//547 542//500
f 587//545 590//548 589//547
f 589//547 590//548 591//549
f 589//547 591//549 542//500
f 542//500 591//549 540//498
f 590//548 592//550 591//549
f 591//549 592//550 593//551
f 591//549 593//551 540//498
f 540//498 593//551 538//496
f 592//550 594//552 593//551
f 593//551 594//552 595//553
f 593//551 595//553 538//496
f 538//496 595//553 536//494
f 594//552 596//554 595//553
f 595//553 596//554 597//555
f 595//553 597//555 536//494
f 536//494 597//555 534//492
f 596//554 598//556 597//555
f 597//555 598//556 599//557
f 597//555 599//557 534//492
f 534//492 599//557 532//490
f 598//556 600//558 599//557
f 599//557 600//558 601//559
f 599//557 601//559 532//490
f 532//490 601//559 530//488
f 600//558 602//560 601//559
f 601//559 602//560 603//561
f 601//559 603//561 530//488
f 530//488 603//561 528//486
f 602//560 604//562 603//561
f 603//561 604//562 605//563
f 603//561 605//563 528//486
f 528//486 605//563 526//484
f 604//562 606//564 605//563
f 605//563 606//564 607//565
f 605//563 607//565 526//484
f 526//484 607//565 524//482
f 606//564 608//566 607//565
f 607//565 608//566 609//567
f 607//565 609//567 524//482
f 524//482 609//567 522//480
f 609//567 608//566 610//568
f 610//568 608//566 611//569
f 610//568 611//569 612//570
f 612//570 611//569 613//571
f 612//570 613//571 614//572
f 614//572 613//571 615//573
f 614//572 615//573 616//574
f 616//574 615//573 617//575
f 616//574 617//575 618//576
f 618//576 617//575 619//577
f 618//576 619//577 620//578
f 620//578 619//577 621//579
f 620//578 621//579 622//580
f 622//580 621//579 623//581
f 622//580 623//581 624//582
f 624//582 623//581 625//583
f 624//582 625//583 626//584
f 626//584 625//583 627//585
f 626//584 627//585 628//586
f 628//586 627//585 629//587
f 628//586 629//587 630//588
f 630//588 629//587 631//460
f 632//589 502//460 500//458
f 632//589 500//458 498//456
f 630//588 496//456 494//454
f 628//586 630//588 494//454
f 626//584 628//586 504//462
f 504//462 628//586 494//454
f 624//582 626//584 506//464
f 506//464 626//584 504//462
f 622//580 624//582 508//466
f 508//466 624//582 506//464
f 620//578 622//580 510//468
f 510//468 622//580 508//466
f 618//576 620//578 512//470
f 512//470 620//578 510//468
f 616//574 618//576 514//472
f 514//472 618//576 512//470
f 614//572 616//574 516//474
f 516//474 616//574 514//472
f 612//570 614//572 518//476
f 518//476 614//572 516//474
f 610//568 612//570 520//478
f 520//478 612//570 518//476
f 609//567 610//568 522//480
f 522//480 610//568 520//478
f 586//544 588//546 546//504
f 546//504 588//546 544//502
f 584//542 586//544 548//506
f 548//506 586//544 546//504
f 582//540 584//542 550//508
f 550//508 584//542 548//506
f 580//538 582//540 552//510
f 552//510 582//540 550//508
f 578//536 580//538 554//512
f 554//512 580//538 552//510
f 576//534 578//536 556//514
f 556//514 578//536 554//512
f 574//532 576//534 558//516
f 558//516 576//534 556//514
f 572//530 574//532 560//518
f 560//518 574//532 558//516
f 570//528 572//530 562//520
f 562//520 572//530 560//518
f 568//526 570//528 564//522
f 564//522 570//528 562//520
f 501//459 568//526 566//524
f 566//524 568//526 564//522
f 499//457 501//459 566//524
f 633//590 634//68 635//591
f 636//591 637//68 638//592
f 636//591 638//592 639//593
f 639//593 638//592 640//594
f 639//593 640//594 641//595
f 641//595 640//594 642//172
f 641//595 642//172 643//596
f 643//596 642//172 644//170
f 643//596 644//170 645//597
f 645//597 644//170 646//168
f 645//597 646//168 647//598
f 647//598 646//168 648//166
f 647//598 648//166 649//599
f 649//599 648//166 650//600
f 649//599 650//600 651//601
f 651//601 650//600 652//162
f 651//601 652//162 653//602
f 653//602 652//162 654//160
f 653//602 654//160 655//603
f 655//603 654//160 656//158
f 655//603 656//158 657//604
f 657//604 656//158 658//605
f 657//604 658//605 659//606
f 659//606 658//605 660//154
f 659//606 660//154 661//607
f 661//607 660//154 662//152
f 661//607 662//152 663//608
f 663//608 662//152 664//150
f 663//608 664//150 665//609
f 665//609 664//150 666//148
f 665//609 666//148 667//610
f 667//610 666//148 668//611
f 667//610 668//611 669//612
f 669//612 668//611 670//144
f 669//612 670//144 671//613
f 671//613 670//144 672//108
f 671//613 672//108 673//493
f 673//493 672//108 674//614
f 673//493 674//614 675//615
f 675//615 674//614 676//616
f 675//615 676//616 677//617
f 677//617 676//616 678//102
f 677//617 678//102 679//618
f 679//618 678//102 680//100
f 679//618 680//100 681//619
f 681//619 680//100 682//98
f 681//619 682//98 683//620
f 683//620 682//98 684//96
f 683//620 684//96 685//621
f 685//621 684//96 686//622
f 685//621 686//622 687//623
f 687//623 686//622 688//92
f 687//623 688//92 689//624
f 689//624 688//92 690//90
f 689//624 690//90 691//625
f 691//625 690//90 692//88
f 691//625 692//88 693//626
f 693//626 692//88 694//627
f 693//626 694//627 695//628
f 695//628 694//627 696//84
f 695//628 696//84 697//629
f 697//629 696//84 698//82
f 697//629 698//82 699//630
f 699//630 698//82 700//80
f 699//630 700//80 701//631
f 701//631 700//80 702//78
f 701//631 702//78 703//632
f 703//632 702//78 704//633
f 703//632 704//633 705//634
f 705//634 704//633 706//66
f 705//634 706//66 633//590
f 633//590 706//66 634//68
f 707//275 708//275 709//73
f 709//73 708//275 710//73
f 709//73 710//73 711//356
f 711//356 710//73 712//356
f 711//356 712//356 713//355
f 713//355 712//356 714//355
f 713//355 714//355 715//354
f 715//354 714//355 716//354
f 715//354 716//354 717//353
f 717//353 716//354 718//353
f 717//353 718//353 719//352
f 719//352 718//353 720//352
f 719//352 720//352 721//351
f 721//351 720//352 722//351
f 721//351 722//351 723//350
f 723//350 722//351 724//350
f 723//350 724//350 725//349
f 725//349 724//350 726//349
f 725//349 726//349 727//348
f 727//348 726//349 728//348
f 727//348 728//348 729//328
f 729//328 728//348 730//328
f 729//328 730//328 731//326
f 731//326 730//328 732//326
f 731//326 732//326 733//324
f 733//324 732//326 734//324
f 733//324 734//324 735//322
f 735//322 734//324 736//322
f 735//322 736//322 737//320
f 737//320 736//322 738//320
f 737//320 738//320 739//314
f 739//314 738//320 740//314
f 739//314 740//314 741//179
f 741//179 740//314 742//179
f 743//179 744//179 745//318
f 745//318 744//179 746//318
f 745//318 746//318 747//317
f 747//317 746//318 748//317
f 747//317 748//317 749//316
f 749//316 748//317 750//316
f 749//316 750//316 751//315
f 751//315 750//316 752//315
f 751//315 752//315 753//301
f 753//301 752//315 754//301
f 753//301 754//301 755//299
f 755//299 754//301 756//299
f 755//299 756//299 757//297
f 757//297 756//299 758//297
f 757//297 758//297 759//295
f 759//295 758//297 760//295
f 759//295 760//295 761//293
f 761//293 760//295 762//293
f 761//293 762//293 763//291
f 763//291 762//293 764//291
f 763//291 764//291 765//289
f 765//289 764//291 766//289
f 765//289 766//289 767//287
f 767//287 766//289 768//287
f 767//287 768//287 769//285
f 769//285 768//287 770//285
f 769//285 770//285 771//283
f 771//283 770//285 772//283
f 771//283 772//283 707//275
f 707//275 772//283 708//275
f 773//525 774//635 775//591
f 775//591 774//635 776//591
f 777//591 778//591 779//636
f 774//635 773//525 780//637
f 780//637 773//525 781//638
f 780//637 781//638 782//639
f 782//639 781//638 783//640
f 782//639 783//640 784//641
f 784//641 783//640 785//642
f 784//641 785//642 786//643
f 786//643 785//642 787//644
f 786//643 787//644 788//645
f 788//645 787//644 789//646
f 788//645 789//646 790//647
f 790//647 789//646 791//648
f 790//647 791//648 792//649
f 792//649 791//648 793//650
f 792//649 793//650 794//625
f 794//625 793//650 795//651
f 794//625 795//651 796//624
f 796//624 795//651 797//507
f 796//624 797//507 798//652
f 798//652 797//507 799//653
f 798//652 799//653 800//654
f 800//654 799//653 801//655
f 800//654 801//655 802//656
f 802//656 801//655 803//657
f 802//656 803//657 804//658
f 804//658 803//657 805//659
f 804//658 805//659 806//660
f 806//660 805//659 807//661
f 806//660 807//661 808//662
f 808//662 807//661 809//495
f 808//662 809//495 810//663
f 810//663 809//495 811//493
f 810//663 811//493 812//493
f 812//493 811//493 813//664
f 813//664 811//493 814//491
f 813//664 814//491 815//665
f 815//665 814//491 816//666
f 815//665 816//666 817//667
f 817//667 816//666 818//668
f 817//667 818//668 819//669
f 819//669 818//668 820//670
f 819//669 820//670 821//671
f 821//671 820//670 822//672
f 821//671 822//672 823//673
f 823//673 822//672 824//674
f 823//673 824//674 825//675
f 825//675 824//674 826//676
f 825//675 826//676 827//677
f 827//677 826//676 828//678
f 827//677 828//678 829//603
f 829//603 828//678 830//679
f 829//603 830//679 831//602
f 831//602 830//679 832//473
f 831//602 832//473 833//680
f 833//680 832//473 834//681
f 833//680 834//681 835//682
f 835//682 834//681 836//683
f 835//682 836//683 837//684
f 837//684 836//683 838//685
f 837//684 838//685 839//686
f 839//686 838//685 840//687
f 839//686 840//687 841//688
f 841//688 840//687 842//689
f 841//688 842//689 843//690
f 843//690 842//689 844//453
f 843//690 844//453 779//636
f 779//636 844//453 777//591
